<svg height="512" viewBox="0 0 58 58" width="512" xmlns="http://www.w3.org/2000/svg"><g id="Page-1" fill="none" fill-rule="evenodd"><g id="029---Sword-and-Shield" fill-rule="nonzero" transform="translate(0 -1)"><path id="Shape" d="m5 43.5v12.5c0 1.6568542 1.34314575 3 3 3s3-1.3431458 3-3v-12.5z" fill="#f0c419"/><path id="Shape" d="m15.89 10.9-4.89 29.1-3 1-3-1-4.89-29.1c-.07171945-.5550749.07928916-1.11596402.42-1.56l5.91-7.57c.37089743-.48693751.94789458-.77275718 1.56-.77275718s1.18910257.28581967 1.56.77275718l5.91 7.57c.3407108.44403598.4917194 1.0049251.42 1.56z" fill="#bdc3c7"/><path id="Shape" d="m16 42c-.0081672 1.1011688-.8988312 1.9918328-2 2h-12c-1.10320187-.0032948-1.9967052-.8967981-2-2-.00282307-.5305905.2101411-1.0395388.59-1.41.3704612-.3798589.87940947-.5928231 1.41-.59h12c1.1032019.0032948 1.9967052.8967981 2 2z" fill="#f3d55b"/><path id="Rectangle-path" d="m5 48h6v5h-6z" fill="#f29c1f"/><path id="Shape" d="m8 9c-.55228475 0-1-.44771525-1-1v-1c0-.55228475.44771525-1 1-1s1 .44771525 1 1v1c0 .55228475-.44771525 1-1 1z" fill="#7f8c8d"/><path id="Shape" d="m8 25c-.55228475 0-1-.4477153-1-1v-12c0-.5522847.44771525-1 1-1s1 .4477153 1 1v12c0 .5522847-.44771525 1-1 1z" fill="#7f8c8d"/><path id="Shape" d="m39 53c23.666-4.175 18.976-33.934 17.909-39.392-.0931159-.4806373-.5238687-.8208172-1.013-.8-2.588.1-10.646-.029-16.2-5.123-.3925671-.36607247-1.0014329-.36607247-1.394 0-5.552 5.089-13.61 5.221-16.202 5.115-.4891313-.0208172-.9198841.3193627-1.013.8-1.063 5.466-5.753 35.225 17.913 39.4z" fill="#f0c419"/><path id="Shape" d="m53.48 32c-.4718312 3.5940489-1.7392612 7.0376324-3.71 10.08-2.0867414 3.076879-5.1924842 5.3185383-8.77 6.33v-11.7c2.2642407-.6745577 4.0354423-2.4457593 4.71-4.71z" fill="#e64c3c"/><path id="Shape" d="m53.92 28c-.0784918 1.339953-.2253497 2.6750244-.44 4h-7.77c.386641-1.3053037.386641-2.6946963 0-4z" fill="#bdc3c7"/><path id="Shape" d="m53.92 28h-8.21c-.6745577-2.2642407-2.4457593-4.0354423-4.71-4.71v-9.78c3.8294531 2.0145947 8.0653547 3.1359634 12.39 3.28.5436889 3.7102606.7212097 7.464994.53 11.21z" fill="#e64c3c"/><path id="Shape" d="m41 13.51v9.78c-1.3053037-.386641-2.6946963-.386641-4 0v-9.78c.6884995-.3843027 1.3561061-.8048948 2-1.26.6438939.4551052 1.3115005.8756973 2 1.26z" fill="#bdc3c7"/><path id="Shape" d="m41 36.71v11.7c-.6559917.2120636-1.3237919.3856917-2 .52-.6762081-.1343083-1.3440083-.3079364-2-.52v-11.7c1.3053037.386641 2.6946963.386641 4 0z" fill="#bdc3c7"/><path id="Shape" d="m37 36.71v11.7c-3.5775158-1.0114617-6.6832586-3.253121-8.77-6.33-1.9707388-3.0423676-3.2381688-6.4859511-3.71-10.08h7.77c.6745577 2.2642407 2.4457593 4.0354423 4.71 4.71z" fill="#e64c3c"/><path id="Shape" d="m37 13.51v9.78c-2.2642407.6745577-4.0354423 2.4457593-4.71 4.71h-8.21c-.1912097-3.745006-.0136889-7.4997394.53-11.21 4.3246453-.1440366 8.5605469-1.2654053 12.39-3.28z" fill="#e64c3c"/><path id="Shape" d="m46 30c.001899.6772782-.095813 1.3511542-.29 2-.6745577 2.2642407-2.4457593 4.0354423-4.71 4.71-1.3053037.386641-2.6946963.386641-4 0-2.2642407-.6745577-4.0354423-2.4457593-4.71-4.71-.386641-1.3053037-.386641-2.6946963 0-4 .6745577-2.2642407 2.4457593-4.0354423 4.71-4.71 1.3053037-.386641 2.6946963-.386641 4 0 2.2642407.6745577 4.0354423 2.4457593 4.71 4.71.194187.6488458.291899 1.3227218.29 2z" fill="#f3d55b"/><path id="Shape" d="m32 30c-.001899.6772782.095813 1.3511542.29 2h-7.77c-.2146503-1.3249756-.3615082-2.660047-.44-4h8.21c-.194187.6488458-.291899 1.3227218-.29 2z" fill="#bdc3c7"/></g></g></svg>