<?xml version="1.0" encoding="iso-8859-1"?>
<!-- Generator: Adobe Illustrator 19.0.0, SVG Export Plug-In . SVG Version: 6.00 Build 0)  -->
<svg version="1.1" id="Capa_1" xmlns="http://www.w3.org/2000/svg" xmlns:xlink="http://www.w3.org/1999/xlink" x="0px" y="0px"
	 viewBox="0 0 512.002 512.002" style="enable-background:new 0 0 512.002 512.002;" xml:space="preserve">
<path d="M188.49,423.361c-0.65,0-1.31-0.06-1.95-0.189c-0.64-0.13-1.27-0.32-1.87-0.57c-0.61-0.25-1.19-0.56-1.73-0.92
	c-0.55-0.36-1.06-0.78-1.52-1.24s-0.88-0.97-1.24-1.52c-0.36-0.54-0.67-1.12-0.92-1.73c-0.25-0.6-0.44-1.229-0.57-1.87
	c-0.13-0.64-0.2-1.3-0.2-1.949c0-0.65,0.07-1.311,0.2-1.96c0.13-0.641,0.32-1.261,0.57-1.87c0.25-0.601,0.56-1.181,0.92-1.721
	c0.36-0.55,0.78-1.06,1.24-1.52s0.97-0.88,1.52-1.25c0.54-0.36,1.12-0.67,1.73-0.92c0.6-0.25,1.23-0.44,1.87-0.57
	c3.25-0.649,6.7,0.41,9.02,2.74c0.46,0.46,0.88,0.97,1.25,1.52c0.36,0.54,0.67,1.12,0.92,1.721c0.25,0.609,0.44,1.229,0.57,1.87
	c0.13,0.649,0.19,1.3,0.19,1.96c0,0.649-0.06,1.31-0.19,1.949c-0.13,0.641-0.32,1.271-0.57,1.87c-0.25,0.61-0.56,1.19-0.92,1.73
	c-0.37,0.55-0.79,1.06-1.25,1.52s-0.97,0.88-1.52,1.24c-0.54,0.36-1.12,0.67-1.72,0.92c-0.61,0.25-1.24,0.44-1.87,0.57
	C189.8,423.301,189.14,423.361,188.49,423.361z"/>
<path style="fill:#AF5042;" d="M79.706,489.135c-9.156-9.156-9.156-24.052,0-33.208c15.63-15.63,21.488-38.521,15.286-59.739
	l-9.934-33.974c-12.863-44.007-0.714-91.482,31.703-123.9c22.768-22.768,52.798-35.723,84.866-36.684
	c0.962-32.068,13.916-62.098,36.684-84.866c32.419-32.419,79.894-44.566,123.898-31.703l33.978,9.932
	c21.216,6.203,44.106,0.345,59.737-15.285c9.156-9.156,24.052-9.156,33.208,0c9.155,9.155,9.156,24.052,0,33.208
	c-27.767,27.767-68.431,38.172-106.122,27.155l-33.978-9.932c-27.53-8.048-57.231-0.448-77.513,19.834
	c-14.714,14.714-22.878,34.278-22.986,55.088l-0.104,20.014c-0.065,12.814-10.545,23.294-23.361,23.359l-20.013,0.103
	c-20.809,0.109-40.373,8.272-55.087,22.986c-20.282,20.282-27.881,49.983-19.835,77.515l9.934,33.974
	c11.018,37.693,0.613,78.357-27.155,106.124C103.759,498.291,88.862,498.29,79.706,489.135z"/>
<polygon style="fill:#F5A740;" points="448.796,378.412 502,431.616 442.163,442.164 376.636,376.637 "/>
<polygon style="fill:#F79020;" points="376.636,376.637 442.163,442.164 431.615,502.001 378.411,448.797 "/>
<polygon style="fill:#CCCCCC;" points="392.195,321.811 448.796,378.412 376.636,376.637 320.036,320.037 "/>
<polygon style="fill:#8A6F64;" points="320.036,320.037 376.636,376.637 378.411,448.797 321.81,392.197 "/>
<polygon style="fill:#EDC183;" points="10.001,10.002 149.275,72.598 72.597,149.276 "/>
<circle style="fill:#8A6F64;" cx="128.53" cy="128.531" r="24.885"/>
<path d="M509.072,424.544L399.266,314.74c-1.815-1.815-4.259-2.862-6.825-2.926l-68.161-1.676l-9.207-9.207
	c0,0,179.809-179.621,181.133-180.944c13.054-13.055,13.054-34.296,0-47.351c-6.317-6.316-14.725-9.796-23.676-9.796
	c-8.95,0-17.358,3.479-23.675,9.796c-13.047,13.047-32.15,17.935-49.86,12.758l-33.978-9.932
	c-47.511-13.887-98.771-0.772-133.775,34.229c-19.354,19.354-32.196,43.725-37.252,70.156l-28.459-28.459l7.118-7.118
	c3.905-3.905,3.905-10.237,0-14.143c-2.51-2.51-6.023-3.406-9.249-2.689c-0.273-8.908-3.87-17.242-10.2-23.573
	c-3.763-3.763-8.178-6.484-12.885-8.165l16.032-16.032c2.325-2.324,3.358-5.643,2.765-8.876c-0.594-3.233-2.738-5.969-5.736-7.316
	L14.1,0.88C10.313-0.822,5.867-0.007,2.929,2.93c-2.937,2.937-3.752,7.383-2.05,11.171l62.597,139.274
	c1.348,2.998,4.083,5.143,7.316,5.736c0.602,0.11,1.205,0.164,1.806,0.164c2.627,0,5.178-1.037,7.071-2.929l16.016-16.016
	c1.715,4.784,4.481,9.168,8.181,12.868c6.33,6.331,14.665,9.929,23.573,10.201c-0.717,3.227,0.18,6.74,2.69,9.25
	c1.953,1.952,4.512,2.929,7.071,2.929s5.119-0.977,7.071-2.929l7.119-7.119l28.459,28.459
	c-26.431,5.055-50.802,17.898-70.157,37.252c-35.002,35.003-48.118,86.263-34.23,133.778l9.933,33.973
	c5.176,17.71,0.287,36.816-12.758,49.862c-6.317,6.316-9.796,14.725-9.796,23.675s3.479,17.358,9.796,23.676
	c6.527,6.526,15.101,9.79,23.675,9.79s17.148-3.264,23.676-9.79c30.351-30.353,41.725-74.801,29.682-116.002l-9.933-33.974
	c-7.021-24.023-0.39-49.94,17.307-67.638c12.84-12.84,29.911-19.963,48.068-20.058l20.012-0.104
	c5.522-0.028,10.739-1.412,15.335-3.833l46.332,46.332l-78.74,78.74c-3.905,3.905-3.905,10.237,0,14.143
	c1.953,1.952,4.512,2.929,7.071,2.929s5.119-0.977,7.071-2.929l78.74-78.74l9.206,9.207l1.677,68.163
	c0.063,2.566,1.111,5.01,2.926,6.825l109.805,109.805c1.905,1.904,4.46,2.929,7.072,2.929c1.005,0,2.019-0.151,3.006-0.463
	c3.557-1.121,6.193-4.129,6.841-7.801l9.332-52.941l52.941-9.332c3.673-0.647,6.68-3.285,7.801-6.842
	C512.659,431.067,511.708,427.181,509.072,424.544z M75.776,131.955L29.914,29.916l102.04,45.861L75.776,131.955z M118.007,139.058
	c-2.811-2.812-4.359-6.549-4.359-10.524c0-3.976,1.548-7.714,4.36-10.525c2.902-2.902,6.713-4.353,10.525-4.353
	c3.811,0,7.624,1.451,10.525,4.353c2.812,2.812,4.36,6.55,4.36,10.525c0,3.976-1.548,7.713-4.36,10.524s-6.549,4.36-10.525,4.36
	C124.557,143.418,120.819,141.871,118.007,139.058C118.008,139.058,118.008,139.058,118.007,139.058z M245.384,123.834
	c21.966-21.966,51.441-33.818,81.625-33.818c10.812,0,21.716,1.521,32.396,4.644l33.978,9.932
	c24.723,7.226,51.398,0.401,69.614-17.813c2.54-2.54,5.925-3.938,9.533-3.938s6.994,1.398,9.533,3.938
	c5.256,5.256,5.256,13.81,0,19.065c-25.183,25.184-62.063,34.622-96.246,24.628l-33.978-9.933
	c-31.038-9.072-64.523-0.504-87.39,22.36c-16.589,16.591-25.792,38.647-25.914,62.107l-0.1,19.286l-26.607-26.607
	C213.683,169.802,225.503,143.715,245.384,123.834z M205.005,238.536c-23.459,0.122-45.516,9.326-62.106,25.915
	c-22.865,22.866-31.434,56.353-22.362,87.393l9.934,33.974c9.992,34.185,0.555,71.063-24.627,96.247
	c-5.257,5.259-13.81,5.257-19.066,0c-2.54-2.539-3.938-5.925-3.938-9.533c0-3.607,1.398-6.993,3.938-9.532
	c18.214-18.215,25.04-44.891,17.813-69.617l-9.933-33.973C82.821,318.912,94,275.221,123.834,245.387
	c19.881-19.882,45.968-31.701,73.853-33.556l26.606,26.607L205.005,238.536z M254.598,240.456c2.421-4.595,3.805-9.811,3.833-15.332
	l0.104-20.014c0.094-18.157,7.217-35.229,20.056-48.068c17.698-17.697,43.615-24.328,67.637-17.306l33.978,9.933
	c10.868,3.177,21.955,4.724,32.957,4.724c7.511,0,14.979-0.723,22.303-2.14L300.93,286.788L254.598,240.456z M387.952,331.709
	l36.09,36.09l-43.162-1.061l-36.09-36.091L387.952,331.709z M330.647,344.791l36.09,36.09l1.062,43.162l-36.09-36.09
	L330.647,344.791z M425.102,481.346l-36.792-36.792l-1.062-43.163l44.162,44.162L425.102,481.346z M445.553,431.412l-44.162-44.163
	l43.162,1.061l36.792,36.793L445.553,431.412z"/>
<g>
</g>
<g>
</g>
<g>
</g>
<g>
</g>
<g>
</g>
<g>
</g>
<g>
</g>
<g>
</g>
<g>
</g>
<g>
</g>
<g>
</g>
<g>
</g>
<g>
</g>
<g>
</g>
<g>
</g>
</svg>
