<svg id="Hygiene_Icons" enable-background="new 0 0 256 256" height="512" viewBox="0 0 256 256" width="512" xmlns="http://www.w3.org/2000/svg"><g><g><path d="m24.263 37.343c-27.018 27.018-27.018 70.822 0 97.84l103.737 103.737 103.736-103.737c27.018-27.018 27.018-70.822 0-97.84-27.018-27.018-70.822-27.018-97.84 0l-5.896 5.897-5.897-5.897c-27.018-27.017-70.822-27.017-97.84 0z" fill="#ff4397"/></g><g><g><path d="m231.737 37.344c-15.655-15.655-36.942-22.219-57.337-19.733 14.804 1.805 29.14 8.369 40.503 19.733 27.018 27.018 24.547 67.721 0 97.84l-86.903 103.736 103.737-103.737c27.017-27.018 27.017-70.822 0-97.839z" fill="#e12579"/></g></g><g><g><path d="m24.263 37.344c15.655-15.655 36.942-22.219 57.337-19.733-14.804 1.805-29.14 8.369-40.503 19.733-27.018 27.018-24.547 67.721 0 97.84l86.903 103.736-103.737-103.737c-27.017-27.018-27.017-70.822 0-97.839z" fill="#ff61b5"/></g></g><g><g><path d="m21.92 90.149c-1.052 0-1.934-.821-1.995-1.885-.242-4.2-.034-8.383.618-12.433.176-1.09 1.197-1.833 2.292-1.657 1.09.176 1.832 1.202 1.657 2.293-.606 3.764-.799 7.656-.574 11.567.063 1.103-.779 2.048-1.882 2.111-.038.003-.077.004-.116.004z" fill="#690589"/></g></g><g><path d="m128 240.92c-.53 0-1.039-.211-1.414-.586l-103.737-103.737c-27.754-27.754-27.754-72.914 0-100.667 27.754-27.754 72.914-27.754 100.668 0l4.483 4.482 4.482-4.482c27.754-27.754 72.914-27.754 100.668 0 13.445 13.444 20.85 31.32 20.85 50.333s-7.405 36.89-20.85 50.334l-103.736 103.737c-.375.375-.884.586-1.414.586zm-102.323-202.163c-26.194 26.195-26.194 68.817 0 95.012l102.323 102.322 102.322-102.322c12.69-12.689 19.678-29.56 19.678-47.505s-6.988-34.816-19.678-47.506c-12.69-12.689-29.561-19.678-47.506-19.678s-34.816 6.988-47.506 19.677l-5.896 5.897c-.75.75-2.078.751-2.828 0l-5.897-5.897c-26.194-26.194-68.816-26.194-95.012 0z" fill="#690589"/></g><g><path d="m140.944 122.691c0 40.911 16.922 80 46.754 107.995l8.774 8.234 8.774-8.234c29.831-27.996 46.754-67.084 46.754-107.995l-55.528-32.059z" fill="#7bac51"/></g><g><path d="m246.859 119.723c-.4 42.116-19.774 90.468-50.387 119.197l8.774-8.234c29.831-27.996 46.754-67.084 46.754-107.995z" fill="#dea42e"/></g><g><path d="m246.859 119.723c-.4 42.116-19.774 90.468-50.387 119.197l8.774-8.234c29.831-27.996 46.754-67.084 46.754-107.995z" fill="#5d8e33"/></g><g><path d="m146.085 119.723c.4 42.116 19.774 90.468 50.387 119.197l-8.774-8.234c-29.832-27.996-46.754-67.085-46.754-107.995z" fill="#99ca6f"/></g><g><path d="m196.472 240.92c-.492 0-.984-.181-1.369-.542l-8.773-8.234c-30.114-28.261-47.386-68.155-47.386-109.454 0-.714.381-1.375 1-1.732l55.528-32.059c.619-.357 1.381-.357 2 0l55.528 32.06c.619.357 1 1.018 1 1.732 0 41.299-17.272 81.193-47.386 109.454l-8.774 8.234c-.384.36-.877.541-1.368.541zm-53.524-117.078c.319 39.787 17.088 78.142 46.119 105.385l7.405 6.95 7.405-6.95c29.031-27.244 45.8-65.599 46.119-105.385l-53.524-30.901z" fill="#690589"/></g><g><path d="m224.119 147.844h-18.003v-18.004h-19.288v18.004h-18.004v19.287h18.004v18.004h19.288v-18.004h18.003z" fill="#f4efed"/></g><g><path d="m206.116 187.135h-19.288c-1.105 0-2-.896-2-2v-16.003h-16.003c-1.105 0-2-.896-2-2v-19.288c0-1.104.895-2 2-2h16.003v-16.004c0-1.105.895-2 2-2h19.288c1.104 0 2 .896 2 2v16.003h16.003c1.104 0 2 .896 2 2v19.288c0 1.104-.896 2-2 2h-16.003v16.003c0 1.105-.896 2.001-2 2.001zm-17.288-4h15.288v-16.003c0-1.104.895-2 2-2h16.003v-15.288h-16.003c-1.105 0-2-.895-2-2v-16.004h-15.288v16.003c0 1.105-.896 2-2 2h-16.003v15.288h16.003c1.104 0 2 .896 2 2z" fill="#690589"/></g></g></svg>