<svg id="group" enable-background="new 0 0 300 300" height="512" viewBox="0 0 300 300" width="512" xmlns="http://www.w3.org/2000/svg"><g><circle cx="163.638" cy="132" fill="#efefd2" r="86"/><g><path d="m203.638 30c-34.188 0-62 27.812-62 62s27.812 62 62 62 62-27.812 62-62-27.813-62-62-62zm-50 62c0-27.57 22.43-50 50-50 11.626 0 22.311 4.022 30.812 10.703l-70.109 70.109c-6.681-8.501-10.703-19.186-10.703-30.812zm50 50c-11.626 0-22.311-4.022-30.812-10.703l70.109-70.109c6.681 8.501 10.703 19.186 10.703 30.812 0 27.57-22.43 50-50 50z" fill="#e66353"/><path d="m203.638 158c-36.393 0-66-29.607-66-66s29.607-66 66-66 66 29.607 66 66-29.608 66-66 66zm0-124c-31.98 0-58 26.02-58 58s26.02 58 58 58 58-26.02 58-58-26.02-58-58-58zm0 112c-12.15 0-23.66-3.996-33.283-11.559-.9-.705-1.453-1.764-1.521-2.906-.068-1.141.355-2.258 1.164-3.066l70.109-70.109c.811-.809 1.932-1.25 3.066-1.164 1.143.068 2.201.621 2.906 1.521 7.563 9.623 11.559 21.133 11.559 33.283 0 29.775-24.225 54-54 54zm-24.643-15.217c7.381 4.734 15.814 7.217 24.643 7.217 25.365 0 46-20.635 46-46 0-8.828-2.482-17.262-7.217-24.643zm-14.654-3.971c-.08 0-.158-.002-.238-.008-1.143-.068-2.201-.621-2.906-1.521-7.562-9.623-11.559-21.133-11.559-33.283 0-29.775 24.225-54 54-54 12.15 0 23.66 3.996 33.283 11.559.9.705 1.453 1.764 1.521 2.906.068 1.141-.355 2.258-1.164 3.066l-70.109 70.109c-.752.753-1.772 1.172-2.828 1.172zm39.297-80.812c-25.365 0-46 20.635-46 46 0 8.828 2.482 17.262 7.217 24.643l63.426-63.426c-7.382-4.735-15.815-7.217-24.643-7.217z" fill="#4c241d"/></g><g><path d="m173.638 246v-53.312c0-4.94-2.159-9.62-5.881-12.748l-12.149-10.21c-2.893-2.431-6.488-3.756-10.193-3.756h-15.553c-3.705 0-7.3 1.325-10.193 3.756l-12.149 10.21c-3.722 3.128-5.881 7.808-5.881 12.748v53.312z" fill="#bf7e68"/><path d="m173.638 250h-72c-2.209 0-4-1.791-4-4v-53.312c0-6.145 2.664-11.906 7.307-15.811l12.152-10.209c3.6-3.025 8.133-4.693 12.764-4.693h15.555c4.631 0 9.164 1.668 12.766 4.693l12.148 10.209c4.645 3.904 7.309 9.666 7.309 15.811v53.312c-.001 2.209-1.792 4-4.001 4zm-68-8h64v-49.312c0-3.775-1.623-7.307-4.455-9.686l-12.148-10.209c-2.164-1.818-4.869-2.818-7.619-2.818h-15.556c-2.75 0-5.455 1-7.617 2.818l-12.152 10.209c-2.83 2.379-4.453 5.91-4.453 9.686z" fill="#4c241d"/></g><g><path d="m189.497 270c24.378 0 44.14-19.762 44.14-44.14v-21.171c0-4.94-2.159-9.62-5.881-12.748l-12.149-10.21c-2.893-2.431-6.488-3.756-10.193-3.756h-15.553c-3.705 0-7.3 1.325-10.193 3.756l-12.149 10.21c-3.722 3.128-5.881 7.808-5.881 12.748v65.311z" fill="#fc8c29"/><path d="m189.497 274h-27.859c-2.209 0-4-1.791-4-4v-65.312c0-6.145 2.664-11.906 7.307-15.811l12.152-10.209c3.6-3.025 8.133-4.693 12.764-4.693h15.555c4.631 0 9.164 1.668 12.766 4.693l12.148 10.209c4.645 3.904 7.309 9.666 7.309 15.811v21.172c-.001 26.544-21.597 48.14-48.142 48.14zm-23.859-8h23.859c22.133 0 40.141-18.008 40.141-40.141v-21.172c0-3.775-1.623-7.307-4.455-9.686l-12.148-10.209c-2.164-1.818-4.869-2.818-7.619-2.818h-15.556c-2.75 0-5.455 1-7.617 2.818l-12.152 10.209c-2.83 2.379-4.453 5.91-4.453 9.686z" fill="#4c241d"/></g><g><path d="m113.638 270v-65.312c0-4.94-2.159-9.62-5.881-12.748l-12.149-10.21c-2.893-2.431-6.488-3.756-10.193-3.756h-15.554c-3.705 0-7.3 1.325-10.193 3.756l-12.149 10.21c-3.722 3.128-5.881 7.808-5.881 12.748v21.171c0 24.378 19.762 44.14 44.14 44.14h27.86z" fill="#a9ba5a"/><path d="m113.638 274h-27.86c-26.545 0-48.141-21.596-48.141-48.141v-21.172c0-6.145 2.664-11.906 7.307-15.811l12.152-10.209c3.6-3.025 8.133-4.693 12.764-4.693h15.555c4.631 0 9.164 1.668 12.766 4.693l12.148 10.209c4.645 3.904 7.309 9.666 7.309 15.811v65.313c0 2.209-1.791 4-4 4zm-43.778-92.025c-2.75 0-5.455 1-7.617 2.818l-12.152 10.209c-2.83 2.379-4.453 5.91-4.453 9.686v21.172c0 22.133 18.008 40.141 40.141 40.141h23.859v-61.312c0-3.775-1.623-7.307-4.455-9.686l-12.148-10.209c-2.164-1.818-4.869-2.818-7.619-2.818h-15.556z" fill="#4c241d"/></g><g fill="#4c241d"><circle cx="93.638" cy="90" r="4"/><circle cx="97.638" cy="50" r="4"/><path d="m34.362 81.793c-1.023 0-2.047-.391-2.828-1.172-1.562-1.562-1.562-4.094 0-5.656l11.793-11.793c1.562-1.562 4.094-1.562 5.656 0s1.562 4.094 0 5.656l-11.793 11.793c-.781.781-1.804 1.172-2.828 1.172z"/><path d="m46.155 81.793c-1.023 0-2.047-.391-2.828-1.172l-11.793-11.793c-1.562-1.562-1.562-4.094 0-5.656s4.094-1.562 5.656 0l11.793 11.793c1.562 1.562 1.562 4.094 0 5.656-.781.781-1.804 1.172-2.828 1.172z"/></g><g><path d="m177.638 206v36c0 4.418-3.582 8-8 8-4.418 0-8-3.582-8-8v-36" fill="#fc8c29"/><path d="m169.638 254c-6.617 0-12-5.383-12-12v-36c0-2.209 1.791-4 4-4s4 1.791 4 4v36c0 2.205 1.795 4 4 4s4-1.795 4-4v-36c0-2.209 1.791-4 4-4s4 1.791 4 4v36c0 6.617-5.383 12-12 12z" fill="#4c241d"/></g><g><path d="m233.638 206v36c0 4.418-3.582 8-8 8-4.418 0-8-3.582-8-8v-36" fill="#fc8c29"/><path d="m225.638 254c-6.617 0-12-5.383-12-12v-36c0-2.209 1.791-4 4-4s4 1.791 4 4v36c0 2.205 1.795 4 4 4s4-1.795 4-4v-36c0-2.209 1.791-4 4-4s4 1.791 4 4v36c0 6.617-5.383 12-12 12z" fill="#4c241d"/></g><g><path d="m113.638 206v36c0 4.418-3.582 8-8 8-4.418 0-8-3.582-8-8v-36" fill="#a9ba5a"/><path d="m105.638 254c-6.617 0-12-5.383-12-12v-36c0-2.209 1.791-4 4-4s4 1.791 4 4v36c0 2.205 1.795 4 4 4s4-1.795 4-4v-36c0-2.209 1.791-4 4-4s4 1.791 4 4v36c0 6.617-5.383 12-12 12z" fill="#4c241d"/></g><g><path d="m57.638 206v36c0 4.418-3.582 8-8 8-4.418 0-8-3.582-8-8v-36" fill="#a9ba5a"/><path d="m49.638 254c-6.617 0-12-5.383-12-12v-36c0-2.209 1.791-4 4-4s4 1.791 4 4v36c0 2.205 1.795 4 4 4s4-1.795 4-4v-36c0-2.209 1.791-4 4-4s4 1.791 4 4v36c0 6.617-5.383 12-12 12z" fill="#4c241d"/></g><g><path d="m213.638 178h-13.926c-9.982 0-18.074-8.092-18.074-18.074v-9.926c0-8.837 7.163-16 16-16 8.837 0 16 7.163 16 16z" fill="#b5a19c"/><path d="m213.638 182h-13.926c-12.172 0-22.074-9.902-22.074-22.074v-9.926c0-11.027 8.973-20 20-20s20 8.973 20 20v28c0 2.209-1.791 4-4 4zm-16-44c-6.617 0-12 5.383-12 12v9.926c0 7.76 6.314 14.074 14.074 14.074h9.926v-24c0-6.617-5.383-12-12-12z" fill="#4c241d"/></g><g><path d="m153.638 166h-13.926c-9.982 0-18.074-8.092-18.074-18.074v-9.926c0-8.837 7.163-16 16-16 8.837 0 16 7.163 16 16z" fill="#e7d1c4"/><path d="m153.638 170h-13.926c-12.172 0-22.074-9.902-22.074-22.074v-9.926c0-11.027 8.973-20 20-20s20 8.973 20 20v28c0 2.209-1.791 4-4 4zm-16-44c-6.617 0-12 5.383-12 12v9.926c0 7.76 6.314 14.074 14.074 14.074h9.926v-24c0-6.617-5.383-12-12-12z" fill="#4c241d"/></g><g><path d="m61.638 178h13.926c9.982 0 18.074-8.092 18.074-18.074v-9.926c0-8.837-7.163-16-16-16-8.837 0-16 7.163-16 16z" fill="#ffded5"/><path d="m75.563 182h-13.925c-2.209 0-4-1.791-4-4v-28c0-11.027 8.973-20 20-20s20 8.973 20 20v9.926c0 12.172-9.903 22.074-22.075 22.074zm-9.925-8h9.926c7.76 0 14.074-6.314 14.074-14.074v-9.926c0-6.617-5.383-12-12-12s-12 5.383-12 12z" fill="#4c241d"/></g><g><path d="m165.638 270v-17.312c0-4.94-2.159-9.62-5.881-12.748l-12.149-10.21c-2.893-2.431-6.488-3.756-10.193-3.756h-15.553c-3.705 0-7.3 1.325-10.193 3.756l-12.149 10.21c-3.722 3.128-5.881 7.808-5.881 12.748v17.312z" fill="#ffce56"/><path d="m165.638 274h-72c-2.209 0-4-1.791-4-4v-17.312c0-6.145 2.664-11.906 7.307-15.811l12.152-10.209c3.6-3.025 8.133-4.693 12.764-4.693h15.555c4.631 0 9.164 1.668 12.766 4.693l12.148 10.209c4.645 3.904 7.309 9.666 7.309 15.811v17.312c-.001 2.209-1.792 4-4.001 4zm-68-8h64v-13.312c0-3.775-1.623-7.307-4.455-9.686l-12.148-10.209c-2.164-1.818-4.869-2.818-7.619-2.818h-15.556c-2.75 0-5.455 1-7.617 2.818l-12.152 10.209c-2.83 2.379-4.453 5.91-4.453 9.686z" fill="#4c241d"/></g><g><path d="m113.638 226h13.926c9.982 0 18.074-8.092 18.074-18.074v-9.926c0-8.837-7.163-16-16-16-8.837 0-16 7.163-16 16z" fill="#e7d1c4"/><path d="m127.563 230h-13.926c-2.209 0-4-1.791-4-4v-28c0-11.027 8.973-20 20-20s20 8.973 20 20v9.926c.001 12.172-9.902 22.074-22.074 22.074zm-9.925-8h9.926c7.76 0 14.074-6.314 14.074-14.074v-9.926c0-6.617-5.383-12-12-12s-12 5.383-12 12z" fill="#4c241d"/></g></g></svg>