<?xml version="1.0" encoding="iso-8859-1"?>
<!-- Generator: Adobe Illustrator 19.0.0, SVG Export Plug-In . SVG Version: 6.00 Build 0)  -->
<svg version="1.1" id="Capa_1" xmlns="http://www.w3.org/2000/svg" xmlns:xlink="http://www.w3.org/1999/xlink" x="0px" y="0px"
	 viewBox="0 0 512.006 512.006" style="enable-background:new 0 0 512.006 512.006;" xml:space="preserve">
<g>
	<rect x="230.403" y="349.873" style="fill:#394D5C;" width="68.267" height="153.6"/>
	<path style="fill:#394D5C;" d="M307.203,512.006H221.87V341.34h85.333V512.006z M238.937,494.94h51.2V358.406h-51.2V494.94z"/>
</g>
<rect x="256.003" y="460.806" style="fill:#FDBD40;" width="17.067" height="17.067"/>
<polygon style="fill:#AABECE;" points="349.87,281.606 179.203,281.606 179.203,76.806 264.537,8.54 349.87,76.806 "/>
<polygon style="fill:#7D8D9C;" points="281.603,281.606 247.47,281.606 247.47,93.873 264.537,76.806 281.603,93.873 "/>
<g>
	<rect x="204.803" y="238.94" style="fill:#DA1C4B;" width="17.067" height="17.067"/>
	<rect x="204.803" y="187.74" style="fill:#DA1C4B;" width="17.067" height="34.133"/>
</g>
<rect id="SVGCleanerId_0" x="196.27" y="307.206" width="136.533" height="17.067"/>
<path id="SVGCleanerId_1" style="fill:#DA1C4B;" d="M162.137,51.206c-23.552-0.026-42.641-19.115-42.667-42.667
	c0-4.71,3.823-8.533,8.533-8.533c4.71,0,8.533,3.823,8.533,8.533c0,14.14,11.46,25.6,25.6,25.6c4.71,0,8.533,3.823,8.533,8.533
	S166.847,51.206,162.137,51.206z"/>
<g>
	<path id="SVGCleanerId_1_1_" style="fill:#DA1C4B;" d="M162.137,51.206c-23.552-0.026-42.641-19.115-42.667-42.667
		c0-4.71,3.823-8.533,8.533-8.533c4.71,0,8.533,3.823,8.533,8.533c0,14.14,11.46,25.6,25.6,25.6c4.71,0,8.533,3.823,8.533,8.533
		S166.847,51.206,162.137,51.206z"/>
</g>
<path style="fill:#DA1C4B;" d="M93.87,51.206c-4.71,0-8.533-3.823-8.533-8.533s3.823-8.533,8.533-8.533
	c14.14,0,25.6-11.46,25.6-25.6c0-4.71,3.823-8.533,8.533-8.533c4.71,0,8.533,3.823,8.533,8.533
	C136.511,32.092,117.422,51.181,93.87,51.206z"/>
<path id="SVGCleanerId_2" style="fill:#DA1C4B;" d="M128.003,85.34c-4.71,0-8.533-3.823-8.533-8.533
	c0.026-23.552,19.115-42.641,42.667-42.667c4.71,0,8.533,3.823,8.533,8.533s-3.823,8.533-8.533,8.533c-14.14,0-25.6,11.46-25.6,25.6
	C136.537,81.525,132.714,85.34,128.003,85.34z"/>
<g>
	<path id="SVGCleanerId_2_1_" style="fill:#DA1C4B;" d="M128.003,85.34c-4.71,0-8.533-3.823-8.533-8.533
		c0.026-23.552,19.115-42.641,42.667-42.667c4.71,0,8.533,3.823,8.533,8.533s-3.823,8.533-8.533,8.533
		c-14.14,0-25.6,11.46-25.6,25.6C136.537,81.525,132.714,85.34,128.003,85.34z"/>
</g>
<path style="fill:#DA1C4B;" d="M128.003,85.34c-4.71,0-8.533-3.823-8.533-8.533c0-14.14-11.46-25.6-25.6-25.6
	c-4.71,0-8.533-3.823-8.533-8.533s3.823-8.533,8.533-8.533c23.552,0.026,42.641,19.115,42.667,42.667
	C136.537,81.525,132.714,85.34,128.003,85.34z"/>
<path style="fill:#AABECE;" d="M307.203,443.74H221.87v-68.267h85.333V443.74z M238.937,426.673h51.2V392.54h-51.2V426.673z"/>
<rect x="162.137" y="281.606" style="fill:#FDBD40;" width="204.8" height="68.267"/>
<path d="M355.203,70.142L269.87,1.875c-3.115-2.5-7.552-2.5-10.667,0L173.87,70.142c-2.022,1.621-3.2,4.079-3.2,6.665v196.267
	h-17.067v85.333h68.267v153.6h85.333v-153.6h68.267v-85.333h-17.067V76.806C358.403,74.221,357.226,71.763,355.203,70.142z
	 M187.737,80.902l76.8-61.44l76.8,61.44v192.171h-51.2V90.34l-25.6-25.6l-25.6,25.6v182.733h-51.2V80.902z M273.07,273.073h-17.067
	V97.406l8.533-8.533l8.533,8.533V273.073z M238.937,392.54h51.2v34.133h-51.2V392.54z M290.137,494.94h-51.2v-51.2h51.2V494.94z
	 M290.137,375.473h-51.2v-17.067h51.2V375.473z M358.403,341.34H170.67v-51.2h187.733V341.34z"/>
<rect x="204.803" y="238.94" width="17.067" height="17.067"/>
<rect x="204.803" y="187.74" width="17.067" height="34.133"/>
<g>
	<rect id="SVGCleanerId_0_1_" x="196.27" y="307.206" width="136.533" height="17.067"/>
</g>
<rect x="256.003" y="460.806" width="17.067" height="17.067"/>
<path d="M162.137,34.14c-14.14,0-25.6-11.46-25.6-25.6c0-4.71-3.823-8.533-8.533-8.533c-4.71,0-8.533,3.823-8.533,8.533
	c0,14.14-11.46,25.6-25.6,25.6c-4.71,0-8.533,3.823-8.533,8.533s3.823,8.533,8.533,8.533c14.14,0,25.6,11.46,25.6,25.6
	c0,4.71,3.823,8.533,8.533,8.533c4.71,0,8.533-3.823,8.533-8.533c0-14.14,11.46-25.6,25.6-25.6c4.71,0,8.533-3.823,8.533-8.533
	S166.847,34.14,162.137,34.14z M128.003,51.471c-2.483-3.345-5.453-6.306-8.798-8.798c3.345-2.483,6.315-5.453,8.798-8.798
	c2.483,3.345,5.453,6.315,8.798,8.798C133.456,45.165,130.486,48.126,128.003,51.471z"/>
<rect x="392.537" y="59.74" width="17.067" height="17.067"/>
<rect x="392.537" y="93.873" width="17.067" height="17.067"/>
<rect x="375.47" y="76.806" width="17.067" height="17.067"/>
<rect x="409.603" y="76.806" width="17.067" height="17.067"/>
<g>
</g>
<g>
</g>
<g>
</g>
<g>
</g>
<g>
</g>
<g>
</g>
<g>
</g>
<g>
</g>
<g>
</g>
<g>
</g>
<g>
</g>
<g>
</g>
<g>
</g>
<g>
</g>
<g>
</g>
</svg>
