<?xml version="1.0" ?><svg viewBox="0 0 415.38 398.17" xmlns="http://www.w3.org/2000/svg"><defs><style>.cls-1{fill:#395462;}.cls-2{fill:#20363f;}.cls-3{fill:#283d48;opacity:0.5;}.cls-4{fill:#e7e7e7;}.cls-5{fill:#ced0d0;}.cls-6{fill:#fff;}</style></defs><title/><g data-name="Layer 2" id="Layer_2"><g data-name="Layer 1" id="Layer_1-2"><path class="cls-1" d="M268.19,46.34V248h-121V46.34h121m0-40.34h-121a40.34,40.34,0,0,0-40.34,40.34V248a40.34,40.34,0,0,0,40.34,40.34h121A40.34,40.34,0,0,0,308.53,248V46.34A40.34,40.34,0,0,0,268.19,6Z"/><path class="cls-2" d="M268.19,294.36h-121A46.39,46.39,0,0,1,100.84,248V46.34A46.39,46.39,0,0,1,147.18,0h121a46.39,46.39,0,0,1,46.34,46.34V248A46.39,46.39,0,0,1,268.19,294.36ZM147.18,12a34.38,34.38,0,0,0-34.34,34.34V248a34.38,34.38,0,0,0,34.34,34.34h121A34.38,34.38,0,0,0,302.53,248V46.34A34.38,34.38,0,0,0,268.19,12Zm127,242h-133V40.34h133Zm-121-12h109V52.34h-109Z"/><path class="cls-1" d="M369,76.59H46.34A40.34,40.34,0,0,0,6,116.93V298.45a40.34,40.34,0,0,0,40.34,40.34H369a40.34,40.34,0,0,0,40.34-40.34V116.93A40.34,40.34,0,0,0,369,76.59Z"/><path class="cls-1" d="M369,76.59H46.34C24.06,76.59,6,98.33,6,125.14V343.62c0,26.81,18.06,48.55,40.34,48.55H369c22.28,0,40.34-21.74,40.34-48.55V125.14C409.38,98.33,391.31,76.59,369,76.59Z"/><path class="cls-3" d="M409.38,117.4V143A40.34,40.34,0,0,0,369,102.69H46.34A40.34,40.34,0,0,0,6,143V117.4A40.34,40.34,0,0,1,46.34,77.06H369A40.34,40.34,0,0,1,409.38,117.4Z"/><path class="cls-2" d="M369,398.17H46.34C20.79,398.17,0,373.7,0,343.62V125.14C0,95.06,20.79,70.59,46.34,70.59H369c25.55,0,46.34,24.47,46.34,54.55V343.62C415.38,373.7,394.59,398.17,369,398.17ZM46.34,82.59C27.4,82.59,12,101.68,12,125.14V343.62c0,23.46,15.4,42.55,34.34,42.55H369c18.93,0,34.34-19.09,34.34-42.55V125.14c0-23.46-15.4-42.55-34.34-42.55Z"/><path class="cls-4" d="M132.35,184.32v23.63a32.37,32.37,0,0,0,32.37,32.37h85.93A32.37,32.37,0,0,0,283,207.94V184.32"/><rect class="cls-5" height="13.29" width="150.67" x="132.35" y="186.21"/><rect class="cls-2" height="12" width="403.38" x="6" y="178.32"/><path class="cls-2" d="M250.65,246.31H164.72a38.41,38.41,0,0,1-38.37-38.37V184.32h12v23.63a26.4,26.4,0,0,0,26.37,26.37h85.93A26.4,26.4,0,0,0,277,207.94V184.32h12v23.63A38.41,38.41,0,0,1,250.65,246.31Z"/><rect class="cls-2" height="8" width="26.58" x="194.4" y="207.84"/><ellipse class="cls-6" cx="388.3" cy="265.22" rx="3.83" ry="23.48" transform="translate(-6.54 9.83) rotate(-1.44)"/><ellipse class="cls-6" cx="387.3" cy="219.26" rx="3.83" ry="11.74" transform="translate(-5.38 9.79) rotate(-1.44)"/></g></g></svg>