<?xml version="1.0" ?><svg height="32" id="svg4063" version="1.1" viewBox="0 0 32 32.000001" width="32" xmlns="http://www.w3.org/2000/svg" xmlns:cc="http://creativecommons.org/ns#" xmlns:dc="http://purl.org/dc/elements/1.1/" xmlns:inkscape="http://www.inkscape.org/namespaces/inkscape" xmlns:rdf="http://www.w3.org/1999/02/22-rdf-syntax-ns#" xmlns:sodipodi="http://sodipodi.sourceforge.net/DTD/sodipodi-0.dtd" xmlns:svg="http://www.w3.org/2000/svg"><defs id="defs4065"/><g id="layer1" transform="translate(0,-1020.3621)"><g id="g4443"><path d="m 2.49912,1022.8654 0,25.5 c 0,0.831 0.66899,1.5 1.5,1.5 l 19.5,0 6,-6 0,-21 -0.004,0 -2.24804,3 -2.24805,-3 -2.24805,3 -2.24804,-3 -0.01,0 -2.24805,3 -2.24804,-3 -2.24805,3 -2.25,-3 -2.24805,3 -2.24804,-3 -2.24805,3 -2.24805,-3 -0.008,0 z" id="path4220" style="opacity:1;fill:#e6e7e8;fill-opacity:1;stroke:none;stroke-width:1;stroke-linecap:round;stroke-linejoin:round;stroke-miterlimit:4.0999999;stroke-dasharray:none"/><path d="m 4.4999738,1034.8656 12.9999832,0 0,13 -12.9999832,0 z" id="rect4218" style="opacity:1;fill:#7a51cc;fill-opacity:1;stroke:none;stroke-width:1;stroke-linecap:round;stroke-linejoin:round;stroke-miterlimit:4.0999999;stroke-dasharray:none"/><path d="m 4.4999738,1028.8656 23.0000002,0 0,3 -23.0000002,0 z" id="rect4225" style="opacity:1;fill:#0084ff;fill-opacity:1;stroke:none;stroke-width:0.99999994;stroke-linecap:round;stroke-linejoin:round;stroke-miterlimit:4.0999999;stroke-dasharray:none"/><path d="m 29.50001,1043.8656 -4.2,0 c -0.99722,0 -1.8,0.8028 -1.8,1.8 l 0,4.2 z" id="path4227" style="opacity:1;fill:#bcbec0;fill-opacity:1;stroke:none;stroke-width:1;stroke-linecap:round;stroke-linejoin:round;stroke-miterlimit:4.0999999;stroke-dasharray:none"/><path d="M 2.4921875,1022.3594 A 0.50005,0.50005 0 0 0 2,1022.8652 l 0,25.5 c 0,1.0994 0.9006418,2 2,2 l 19.5,0 a 0.50005,0.50005 0 1 0 0,-1 l -19.5,0 c -0.5626618,0 -1,-0.4373 -1,-1 l 0,-25.5 a 0.50005,0.50005 0 0 0 -0.5078125,-0.5058 z m 27.0000005,0 A 0.50005,0.50005 0 0 0 29,1022.8652 l 0,21 a 0.50005,0.50005 0 1 0 1,0 l 0,-21 a 0.50005,0.50005 0 0 0 -0.507812,-0.5058 z" id="path3617" style="color:#000000;font-style:normal;font-variant:normal;font-weight:normal;font-stretch:normal;font-size:medium;line-height:normal;font-family:sans-serif;text-indent:0;text-align:start;text-decoration:none;text-decoration-line:none;text-decoration-style:solid;text-decoration-color:#000000;letter-spacing:normal;word-spacing:normal;text-transform:none;direction:ltr;block-progression:tb;writing-mode:lr-tb;baseline-shift:baseline;text-anchor:start;white-space:normal;clip-rule:nonzero;display:inline;overflow:visible;visibility:visible;opacity:1;isolation:auto;mix-blend-mode:normal;color-interpolation:sRGB;color-interpolation-filters:linearRGB;solid-color:#000000;solid-opacity:1;fill:#000000;fill-opacity:1;fill-rule:nonzero;stroke:none;stroke-width:1;stroke-linecap:round;stroke-linejoin:round;stroke-miterlimit:4.0999999;stroke-dasharray:none;stroke-dashoffset:0;stroke-opacity:1;color-rendering:auto;image-rendering:auto;shape-rendering:auto;text-rendering:auto;enable-background:accumulate"/><path d="M 25.300781,1043.3652 C 24.035215,1043.3652 23,1044.4005 23,1045.666 l 0,4.1992 a 0.50005,0.50005 0 0 0 0.853516,0.3536 l 6,-6 A 0.50005,0.50005 0 0 0 29.5,1043.3652 l -4.199219,0 z m 0,1 2.992188,0 -4.292969,4.293 0,-2.9922 c 0,-0.7288 0.571907,-1.3008 1.300781,-1.3008 z" id="path3619" style="color:#000000;font-style:normal;font-variant:normal;font-weight:normal;font-stretch:normal;font-size:medium;line-height:normal;font-family:sans-serif;text-indent:0;text-align:start;text-decoration:none;text-decoration-line:none;text-decoration-style:solid;text-decoration-color:#000000;letter-spacing:normal;word-spacing:normal;text-transform:none;direction:ltr;block-progression:tb;writing-mode:lr-tb;baseline-shift:baseline;text-anchor:start;white-space:normal;clip-rule:nonzero;display:inline;overflow:visible;visibility:visible;opacity:1;isolation:auto;mix-blend-mode:normal;color-interpolation:sRGB;color-interpolation-filters:linearRGB;solid-color:#000000;solid-opacity:1;fill:#000000;fill-opacity:1;fill-rule:nonzero;stroke:none;stroke-width:1;stroke-linecap:round;stroke-linejoin:round;stroke-miterlimit:4.0999999;stroke-dasharray:none;stroke-dashoffset:0;stroke-opacity:1;color-rendering:auto;image-rendering:auto;shape-rendering:auto;text-rendering:auto;enable-background:accumulate"/><path d="m 10.478516,1037.4004 c -0.8515803,0.1121 -1.6674126,0.4975 -2.306641,1.1367 -1.2784777,1.2784 -1.5407353,3.2623 -0.6367188,4.8281 0.9040249,1.5658 2.7536118,2.3313 4.4999998,1.8633 1.746386,-0.4679 2.964821,-2.0553 2.964844,-3.8633 a 0.50005,0.50005 0 0 0 -0.5,-0.5 l -3.5,0 a 0.50005,0.50005 0 1 0 0,1 l 2.830078,0 c -0.206841,1.122 -0.918771,2.0927 -2.052734,2.3965 -1.313892,0.3521 -2.6948651,-0.2185 -3.3750002,-1.3965 -0.6801235,-1.178 -0.4852599,-2.6593 0.4765624,-3.6211 0.9618432,-0.9618 2.4431068,-1.1567 3.6210938,-0.4765 a 0.5005087,0.5005087 0 0 0 0.5,-0.8672 c -0.782897,-0.452 -1.669904,-0.6121 -2.521484,-0.5 z" id="path3621" style="color:#000000;font-style:normal;font-variant:normal;font-weight:normal;font-stretch:normal;font-size:medium;line-height:normal;font-family:sans-serif;text-indent:0;text-align:start;text-decoration:none;text-decoration-line:none;text-decoration-style:solid;text-decoration-color:#000000;letter-spacing:normal;word-spacing:normal;text-transform:none;direction:ltr;block-progression:tb;writing-mode:lr-tb;baseline-shift:baseline;text-anchor:start;white-space:normal;clip-rule:nonzero;display:inline;overflow:visible;visibility:visible;opacity:1;isolation:auto;mix-blend-mode:normal;color-interpolation:sRGB;color-interpolation-filters:linearRGB;solid-color:#000000;solid-opacity:1;fill:#000000;fill-opacity:1;fill-rule:nonzero;stroke:none;stroke-width:1;stroke-linecap:round;stroke-linejoin:round;stroke-miterlimit:4.0999999;stroke-dasharray:none;stroke-dashoffset:0;stroke-opacity:1;color-rendering:auto;image-rendering:auto;shape-rendering:auto;text-rendering:auto;enable-background:accumulate"/><path d="m 4.5,1034.3652 a 0.50005,0.50005 0 0 0 -0.5,0.5 l 0,13 a 0.50005,0.50005 0 0 0 0.5,0.5 l 13,0 a 0.50005,0.50005 0 0 0 0.5,-0.5 l 0,-13 a 0.50005,0.50005 0 0 0 -0.5,-0.5 l -13,0 z m 0.5,1 12,0 0,12 -12,0 0,-12 z" id="rect3623" style="color:#000000;font-style:normal;font-variant:normal;font-weight:normal;font-stretch:normal;font-size:medium;line-height:normal;font-family:sans-serif;text-indent:0;text-align:start;text-decoration:none;text-decoration-line:none;text-decoration-style:solid;text-decoration-color:#000000;letter-spacing:normal;word-spacing:normal;text-transform:none;direction:ltr;block-progression:tb;writing-mode:lr-tb;baseline-shift:baseline;text-anchor:start;white-space:normal;clip-rule:nonzero;display:inline;overflow:visible;visibility:visible;opacity:1;isolation:auto;mix-blend-mode:normal;color-interpolation:sRGB;color-interpolation-filters:linearRGB;solid-color:#000000;solid-opacity:1;fill:#000000;fill-opacity:1;fill-rule:nonzero;stroke:none;stroke-width:1;stroke-linecap:round;stroke-linejoin:round;stroke-miterlimit:4.0999999;stroke-dasharray:none;stroke-dashoffset:0;stroke-opacity:1;color-rendering:auto;image-rendering:auto;shape-rendering:auto;text-rendering:auto;enable-background:accumulate"/><path d="m 4.5,1028.3652 a 0.50004997,0.50004997 0 0 0 -0.5,0.5 l 0,3 a 0.50004997,0.50004997 0 0 0 0.5,0.5 l 23,0 a 0.50004997,0.50004997 0 0 0 0.5,-0.5 l 0,-3 a 0.50004997,0.50004997 0 0 0 -0.5,-0.5 l -23,0 z m 0.5,1 22,0 0,2 -22,0 0,-2 z" id="rect3625" style="color:#000000;font-style:normal;font-variant:normal;font-weight:normal;font-stretch:normal;font-size:medium;line-height:normal;font-family:sans-serif;text-indent:0;text-align:start;text-decoration:none;text-decoration-line:none;text-decoration-style:solid;text-decoration-color:#000000;letter-spacing:normal;word-spacing:normal;text-transform:none;direction:ltr;block-progression:tb;writing-mode:lr-tb;baseline-shift:baseline;text-anchor:start;white-space:normal;clip-rule:nonzero;display:inline;overflow:visible;visibility:visible;opacity:1;isolation:auto;mix-blend-mode:normal;color-interpolation:sRGB;color-interpolation-filters:linearRGB;solid-color:#000000;solid-opacity:1;fill:#000000;fill-opacity:1;fill-rule:nonzero;stroke:none;stroke-width:0.99999994;stroke-linecap:round;stroke-linejoin:round;stroke-miterlimit:4.0999999;stroke-dasharray:none;stroke-dashoffset:0;stroke-opacity:1;color-rendering:auto;image-rendering:auto;shape-rendering:auto;text-rendering:auto;enable-background:accumulate"/><path d="m 19.5,1036.3652 a 0.50005,0.50005 0 1 0 0,1 l 0.0078,0 a 0.50005,0.50005 0 1 0 0,-1 l -0.0078,0 z m 2,0 a 0.50005,0.50005 0 1 0 0,1 l 5.007812,0 a 0.50005,0.50005 0 1 0 0,-1 l -5.007812,0 z" id="path3627" style="color:#000000;font-style:normal;font-variant:normal;font-weight:normal;font-stretch:normal;font-size:medium;line-height:normal;font-family:sans-serif;text-indent:0;text-align:start;text-decoration:none;text-decoration-line:none;text-decoration-style:solid;text-decoration-color:#000000;letter-spacing:normal;word-spacing:normal;text-transform:none;direction:ltr;block-progression:tb;writing-mode:lr-tb;baseline-shift:baseline;text-anchor:start;white-space:normal;clip-rule:nonzero;display:inline;overflow:visible;visibility:visible;opacity:1;isolation:auto;mix-blend-mode:normal;color-interpolation:sRGB;color-interpolation-filters:linearRGB;solid-color:#000000;solid-opacity:1;fill:#000000;fill-opacity:1;fill-rule:evenodd;stroke:none;stroke-width:1px;stroke-linecap:round;stroke-linejoin:round;stroke-miterlimit:4;stroke-dasharray:none;stroke-dashoffset:0;stroke-opacity:1;color-rendering:auto;image-rendering:auto;shape-rendering:auto;text-rendering:auto;enable-background:accumulate"/><path d="m 19.5,1038.3652 a 0.50005,0.50005 0 1 0 0,1 l 0.0078,0 a 0.50005,0.50005 0 1 0 0,-1 l -0.0078,0 z m 2,0 a 0.50005,0.50005 0 1 0 0,1 l 5.007812,0 a 0.50005,0.50005 0 1 0 0,-1 l -5.007812,0 z" id="path3629" style="color:#000000;font-style:normal;font-variant:normal;font-weight:normal;font-stretch:normal;font-size:medium;line-height:normal;font-family:sans-serif;text-indent:0;text-align:start;text-decoration:none;text-decoration-line:none;text-decoration-style:solid;text-decoration-color:#000000;letter-spacing:normal;word-spacing:normal;text-transform:none;direction:ltr;block-progression:tb;writing-mode:lr-tb;baseline-shift:baseline;text-anchor:start;white-space:normal;clip-rule:nonzero;display:inline;overflow:visible;visibility:visible;opacity:1;isolation:auto;mix-blend-mode:normal;color-interpolation:sRGB;color-interpolation-filters:linearRGB;solid-color:#000000;solid-opacity:1;fill:#000000;fill-opacity:1;fill-rule:evenodd;stroke:none;stroke-width:1px;stroke-linecap:round;stroke-linejoin:round;stroke-miterlimit:4;stroke-dasharray:none;stroke-dashoffset:0;stroke-opacity:1;color-rendering:auto;image-rendering:auto;shape-rendering:auto;text-rendering:auto;enable-background:accumulate"/><path d="m 19.5,1040.3652 a 0.50005,0.50005 0 1 0 0,1 l 0.0078,0 a 0.50005,0.50005 0 1 0 0,-1 l -0.0078,0 z m 2,0 a 0.50005,0.50005 0 1 0 0,1 l 5.007812,0 a 0.50005,0.50005 0 1 0 0,-1 l -5.007812,0 z" id="path3631" style="color:#000000;font-style:normal;font-variant:normal;font-weight:normal;font-stretch:normal;font-size:medium;line-height:normal;font-family:sans-serif;text-indent:0;text-align:start;text-decoration:none;text-decoration-line:none;text-decoration-style:solid;text-decoration-color:#000000;letter-spacing:normal;word-spacing:normal;text-transform:none;direction:ltr;block-progression:tb;writing-mode:lr-tb;baseline-shift:baseline;text-anchor:start;white-space:normal;clip-rule:nonzero;display:inline;overflow:visible;visibility:visible;opacity:1;isolation:auto;mix-blend-mode:normal;color-interpolation:sRGB;color-interpolation-filters:linearRGB;solid-color:#000000;solid-opacity:1;fill:#000000;fill-opacity:1;fill-rule:evenodd;stroke:none;stroke-width:1px;stroke-linecap:round;stroke-linejoin:round;stroke-miterlimit:4;stroke-dasharray:none;stroke-dashoffset:0;stroke-opacity:1;color-rendering:auto;image-rendering:auto;shape-rendering:auto;text-rendering:auto;enable-background:accumulate"/><path d="m 2.5234375,1022.3594 a 0.50005,0.50005 0 0 0 -0.4160156,0.8066 l 2.2480469,3 a 0.50005,0.50005 0 0 0 0.7988281,0 l 1.8496093,-2.4668 1.8476563,2.4668 a 0.50005,0.50005 0 0 0 0.8007813,0 L 11.5,1023.7012 l 1.847656,2.4648 a 0.50005,0.50005 0 0 0 0.800782,0 l 1.847656,-2.4648 1.847656,2.4648 a 0.50005,0.50005 0 0 0 0.800781,0 l 1.853516,-2.4726 1.851562,2.4726 a 0.50005,0.50005 0 0 0 0.800782,0 L 25,1023.6992 l 1.847656,2.4668 a 0.50005,0.50005 0 0 0 0.798828,0 l 2.25,-3 a 0.50019256,0.50019256 0 1 0 -0.800781,-0.5996 l -1.849609,2.4668 -1.847656,-2.4668 a 0.50005,0.50005 0 0 0 -0.798829,0 l -1.849609,2.4668 -1.847656,-2.4668 a 0.50005,0.50005 0 0 0 -0.400391,-0.2012 l -0.0098,0 a 0.50005,0.50005 0 0 0 -0.398438,0.2012 l -1.849609,2.4668 -1.847657,-2.4668 a 0.50005,0.50005 0 0 0 -0.800781,0 l -1.847656,2.4648 -1.847656,-2.4648 a 0.50005,0.50005 0 0 0 -0.800782,0 l -1.8476559,2.4648 -1.8476562,-2.4648 a 0.50005,0.50005 0 0 0 -0.8007813,0 l -1.8496094,2.4668 -1.8476562,-2.4668 a 0.50005,0.50005 0 0 0 -0.3828125,-0.207 z" id="path3633" style="color:#000000;font-style:normal;font-variant:normal;font-weight:normal;font-stretch:normal;font-size:medium;line-height:normal;font-family:sans-serif;text-indent:0;text-align:start;text-decoration:none;text-decoration-line:none;text-decoration-style:solid;text-decoration-color:#000000;letter-spacing:normal;word-spacing:normal;text-transform:none;direction:ltr;block-progression:tb;writing-mode:lr-tb;baseline-shift:baseline;text-anchor:start;white-space:normal;clip-rule:nonzero;display:inline;overflow:visible;visibility:visible;opacity:1;isolation:auto;mix-blend-mode:normal;color-interpolation:sRGB;color-interpolation-filters:linearRGB;solid-color:#000000;solid-opacity:1;fill:#000000;fill-opacity:1;fill-rule:evenodd;stroke:none;stroke-width:1px;stroke-linecap:round;stroke-linejoin:round;stroke-miterlimit:4;stroke-dasharray:none;stroke-dashoffset:0;stroke-opacity:1;color-rendering:auto;image-rendering:auto;shape-rendering:auto;text-rendering:auto;enable-background:accumulate"/></g></g></svg>