<svg height="512pt" viewBox="-10 0 512 512" width="512pt" xmlns="http://www.w3.org/2000/svg"><path d="m373.746094 143.492188c-2.195313-1.65625-3.988282-5.261719-3.988282-8.011719v-73.511719h-203.101562c-3.613281 0-6.546875 2.902344-6.546875 6.484375v120.507813c0 56.554687 41.820313 103.613281 96.453125 112.484374v55.621094h37.402344v-55.621094c33.894531-5.5 62.851562-25.707031 79.953125-53.753906-8.160157-10.34375-13.035157-23.351562-13.035157-37.496094 0-22.050781 11.824219-41.367187 29.535157-52.078124v-2.03125zm0 0" fill="#ffc502"/><path d="m160.109375 188.960938v-4.839844h-21.265625c-9.890625 0-17.9375-7.96875-17.9375-17.757813v-42.652343h39.203125v-25.808594h-58.988281c-3.46875 0-6.285156 2.789062-6.285156 6.222656v62.238281c0 24.019531 19.742187 43.5625 44.007812 43.5625h23.222656c-1.28125-6.796875-1.957031-13.804687-1.957031-20.964843zm0 0" fill="#fcdb67"/><path d="m241.808594 439.894531h99.621094c.539062-1.539062.847656-3.1875.847656-4.910156v-62.921875c0-8.25-6.75-15-15-15h-84.039063c4.875 12.292969 7.558594 25.691406 7.558594 39.71875 0 15.335938-3.214844 29.910156-8.988281 43.113281zm0 0" fill="#fcdb67"/><path d="m360.796875 439.894531h-118.980469c-6.019531 13.773438-14.832031 26.039063-25.726562 36.089844h144.707031c2.75 0 5-2.25 5-5v-26.089844c0-2.75-2.25-5-5-5zm0 0" fill="#ffc502"/><path d="m302.65625 219.453125c-1.261719 0-2.527344-.296875-3.6875-.894531l-23.707031-12.28125-23.703125 12.28125c-1.15625.597656-2.425782.894531-3.683594.894531-1.644531 0-3.277344-.503906-4.660156-1.492187-2.4375-1.746094-3.660156-4.703126-3.148438-7.636719l4.523438-26.011719-19.175782-18.421875c-2.160156-2.074219-2.9375-5.175781-2.003906-8.003906.929688-2.824219 3.410156-4.882813 6.394532-5.3125l26.5-3.792969 11.855468-23.667969c1.335938-2.667969 4.089844-4.355469 7.101563-4.355469 3.019531 0 5.773437 1.6875 7.105469 4.355469l11.855468 23.667969 26.5 3.792969c2.984375.429687 5.464844 2.488281 6.398438 5.3125.929687 2.828125.152344 5.929687-2.007813 8.003906l-19.175781 18.421875 4.527344 26.011719c.507812 2.933593-.714844 5.890625-3.152344 7.636719-1.382812.988281-3.015625 1.492187-4.65625 1.492187zm0 0" fill="#f7931e"/><path d="m471.238281 95.804688-44.757812 33.804687c-2.195313 1.660156-5.785157 1.660156-7.980469 0l-44.753906-33.804687c-2.195313-1.660157-3.988282-5.265626-3.988282-8.015626v47.691407c0 2.75 1.792969 6.355469 3.988282 8.011719l18.199218 13.746093c9.003907-5.101562 19.425782-8.035156 30.546876-8.035156 11.121093 0 21.542968 2.933594 30.550781 8.035156l18.195312-13.746093c2.195313-1.65625 3.992188-5.261719 3.992188-8.011719v-47.691407c0 2.75-1.796875 6.355469-3.992188 8.015626zm0 0" fill="#fb8276"/><path d="m369.757812 18.121094c0-2.75 2.25-5 5-5h95.472657c2.75 0 5 2.25 5 5v69.667968c0 2.75-1.796875 6.355469-3.992188 8.015626l-44.757812 33.804687c-2.195313 1.660156-5.785157 1.660156-7.980469 0l-44.753906-33.804687c-2.195313-1.660157-3.988282-5.265626-3.988282-8.015626zm0 0" fill="#ef5050"/><path d="m484.105469 210.195312c0 33.6875-27.585938 60.992188-61.613281 60.992188-34.023438 0-61.609376-27.304688-61.609376-60.992188 0-33.683593 27.585938-60.992187 61.609376-60.992187 34.027343 0 61.613281 27.308594 61.613281 60.992187zm0 0" fill="#c6a07d"/><path d="m459.039062 210.195312c0-19.984374-16.363281-36.183593-36.546874-36.183593-20.183594 0-36.546876 16.199219-36.546876 36.183593 0 19.984376 16.363282 36.183594 36.546876 36.183594 20.183593 0 36.546874-16.199218 36.546874-36.183594zm0 0" fill="#775436"/><path d="m143.113281 289.066406c-51.847656 0-95.132812 36.660156-105.375 85.484375l9.265625-.023437c2.75-.003906 6.632813 1.539062 8.628906 3.429687l16.101563 15.277344c1.996094 1.894531 1.996094 4.992187.003906 6.882813l-16.207031 15.382812c-1.996094 1.894531-5.875 3.445312-8.625 3.453125l-9.175781.023437c10.226562 48.839844 53.523437 85.523438 105.382812 85.523438 59.472657 0 107.683594-48.226562 107.683594-107.71875 0-59.488281-48.210937-107.714844-107.683594-107.714844zm0 0" fill="#ef5050"/><path d="m143.113281 322.464844c-38.917969 0-70.925781 30.109375-74.019531 68.265625l2.640625 2.503906c1.996094 1.894531 1.996094 4.988281 0 6.882813l-2.65625 2.519531c3 38.25 35.050781 68.460937 74.035156 68.460937 40.96875 0 74.292969-33.335937 74.292969-74.316406 0-40.976562-33.324219-74.316406-74.292969-74.316406zm0 0" fill="#fff"/><path d="m10.085938 419.035156c-2.75.007813-3.40625-1.574218-1.453126-3.511718l15.308594-15.214844c1.949219-1.941406 1.949219-5.113282 0-7.050782l-15.207031-15.113281c-1.949219-1.9375-1.292969-3.53125 1.457031-3.535156l36.8125-.082031c2.75-.003906 6.632813 1.539062 8.628906 3.429687l16.101563 15.277344c1.996094 1.894531 1.996094 4.992187.003906 6.882813l-16.207031 15.382812c-1.996094 1.894531-5.875 3.445312-8.625 3.453125zm0 0" fill="#75eae7"/><path d="m143.113281 437.699219c-22.550781 0-40.898437-18.355469-40.898437-40.914063 0-22.5625 18.351562-40.917968 40.898437-40.917968 22.558594 0 40.902344 18.355468 40.902344 40.917968 0 22.558594-18.34375 40.914063-40.902344 40.914063zm0 0" fill="#ef5050"/><path d="m379.503906 360c-1.460937 0-2.773437-.878906-3.335937-2.226562-6.871094-16.597657-11.9375-21.667969-28.527344-28.542969-1.347656-.558594-2.226563-1.875-2.226563-3.335938 0-1.457031.878907-2.773437 2.226563-3.332031 16.59375-6.878906 21.65625-11.945312 28.527344-28.542969.5625-1.347656 1.875-2.230469 3.335937-2.230469 1.457032 0 2.773438.882813 3.332032 2.230469 6.875 16.597657 11.941406 21.667969 28.53125 28.542969 1.347656.558594 2.226562 1.875 2.226562 3.332031 0 1.460938-.878906 2.777344-2.226562 3.335938-16.589844 6.875-21.65625 11.945312-28.53125 28.542969-.558594 1.347656-1.875 2.226562-3.332032 2.226562zm0 0" fill="#f7931e"/><path d="m131.605469 63.546875c-1.199219 0-2.28125-.722656-2.738281-1.832031-5.644532-13.636719-9.808594-17.800782-23.441407-23.453125-1.105469-.457031-1.832031-1.539063-1.832031-2.738281 0-1.199219.726562-2.28125 1.832031-2.742188 13.632813-5.648438 17.796875-9.8125 23.441407-23.449219.457031-1.109375 1.539062-1.832031 2.738281-1.832031s2.28125.722656 2.738281 1.832031c5.648438 13.636719 9.8125 17.800781 23.445312 23.449219 1.109376.460938 1.832032 1.542969 1.832032 2.742188 0 1.199218-.722656 2.28125-1.832032 2.738281-13.632812 5.648437-17.796874 9.816406-23.445312 23.453125-.457031 1.109375-1.539062 1.832031-2.738281 1.832031zm0 0" fill="#f7931e"/><path d="m289.074219 121.75c-2.625-5.238281-7.917969-8.492188-13.8125-8.492188-5.890625 0-11.183594 3.253907-13.808594 8.496094l-10.09375 20.15625-22.621094 3.238282c-5.84375.839843-10.613281 4.820312-12.453125 10.390624-1.824218 5.53125-.277344 11.71875 3.933594 15.761719l16.296875 15.660157-3.839844 22.078124c-.996093 5.726563 1.425781 11.621094 6.175781 15.023438 2.640626 1.890625 5.761719 2.890625 9.023438 2.890625 2.472656 0 4.941406-.597656 7.136719-1.734375l20.253906-10.496094 20.253906 10.496094c2.191407 1.136719 4.660157 1.734375 7.136719 1.734375 3.257812 0 6.378906-1 9.023438-2.890625 4.746093-3.402344 7.167968-9.296875 6.175781-15.023438l-3.84375-22.078124 16.296875-15.660157c4.214844-4.042969 5.757812-10.230469 3.933594-15.765625-1.835938-5.566406-6.609376-9.546875-12.457032-10.386718l-22.613281-3.238282zm30.921875 38.484375c.039062.113281-.03125.203125-.078125.246094l-19.175781 18.421875c-1.800782 1.730468-2.621094 4.238281-2.191407 6.695312l4.523438 26.011719c.015625.089844-.03125.183594-.128907.253906-.257812.183594-.402343.097657-.527343.03125l-23.703125-12.28125c-1.082032-.558593-2.265625-.839843-3.449219-.839843s-2.367187.28125-3.449219.839843l-23.707031 12.28125c-.136719.074219-.308594.125-.523437-.03125-.097657-.070312-.148438-.164062-.132813-.253906l4.527344-26.011719c.425781-2.457031-.394531-4.964844-2.191407-6.695312l-19.179687-18.425782c-.046875-.042968-.113281-.128906-.078125-.242187.035156-.097656.152344-.210937.335938-.238281l26.503906-3.796875c2.433594-.347657 4.542968-1.867188 5.644531-4.0625l11.851563-23.667969c.054687-.105469.195312-.214844.398437-.214844s.347656.109375.398437.210938l11.851563 23.667968c1.101563 2.199219 3.210937 3.71875 5.644531 4.066407l26.5 3.792969c.183594.03125.304688.144531.335938.242187zm0 0"/><path d="m465.882812 156.9375 9.875-7.460938c4.105469-3.097656 6.972657-8.855468 6.972657-13.996093v-117.359375c0-6.890625-5.609375-12.5-12.5-12.5h-95.472657c-6.894531 0-12.5 5.609375-12.5 12.5v36.347656h-16.664062c-4.140625 0-7.5 3.359375-7.5 7.5 0 4.144531 3.359375 7.5 7.5 7.5h16.664062v66.011719c0 5.140625 2.863282 10.898437 6.96875 13.996093l9.875 7.460938c-15.671874 12.566406-25.71875 31.769531-25.71875 53.257812 0 13.929688 4.226563 26.890626 11.457032 37.714844-2.386719 3.558594-4.992188 6.992188-7.828125 10.261719-16.546875 19.09375-39.359375 31.832031-64.25 35.871094-3.628907.589843-6.296875 3.726562-6.296875 7.402343v48.121094h-22.402344v-48.121094c0-3.675781-2.667969-6.8125-6.300781-7.402343-24.882813-4.039063-47.699219-16.78125-64.246094-35.871094-16.703125-19.277344-25.90625-43.855469-25.90625-69.210937v-119.492188h139.984375c4.144531 0 7.5-3.355469 7.5-7.5 0-4.140625-3.355469-7.5-7.5-7.5h-140.9375c-7.742188 0-14.046875 6.273438-14.046875 13.984375v21.953125h-51.488281c-7.597656 0-13.785156 6.152344-13.785156 13.722656v62.234375c0 28.15625 23.105468 51.066407 51.507812 51.066407h17.203125c4.523437 18.53125 13.421875 35.898437 26.132813 50.566406 17.441406 20.121094 40.996093 34.046875 66.882812 39.660156v41.910156h-.890625c-18.058594-40.054687-58.355469-68-105.058594-68-53.238281 0-98.148437 36.324219-111.28125 85.496094l-21.660156.046875c-4.429687.011719-7.949219 2.136719-9.410156 5.691406-1.460938 3.554688-.457031 7.539063 2.6875 10.664063l13.398437 13.316406-13.503906 13.421875c-3.144531 3.125-4.148438 7.113281-2.683594 10.664063 1.464844 3.550781 4.980469 5.671874 9.410156 5.671874h.03125l21.722657-.050781c13.132812 49.179688 58.046875 85.511719 111.289062 85.511719 28.988281 0 55.503907-10.769531 75.769531-28.515625h141.914063c6.890625 0 12.5-5.605469 12.5-12.5v-26.089844c0-6.890625-5.609375-12.5-12.5-12.5h-11.019531v-60.328125c0-12.410156-10.09375-22.5-22.5-22.5h-25.8125v-41.910156c25.886718-5.613281 49.445312-19.539062 66.882812-39.660156 2.304688-2.65625 4.464844-5.417969 6.511719-8.242188 12.40625 11.71875 29.179687 18.933594 47.632813 18.933594 38.105468 0 69.113281-30.722656 69.113281-68.492188 0-21.488281-10.046875-40.691406-25.722657-53.257812zm-327.039062 45.488281c-20.132812 0-36.507812-16.175781-36.507812-36.0625v-60.957031h50.273437v10.804688h-31.703125c-4.144531 0-7.5 3.355468-7.5 7.5v42.652343c0 13.925781 11.410156 25.257813 25.433594 25.257813h13.800781c.078125 3.621094.324219 7.226562.726563 10.808594h-14.523438zm13.765625-71.214843v45.410156h-13.765625c-5.757812 0-10.4375-4.601563-10.4375-10.257813v-35.152343zm-129.296875 280.296874 5.914062-5.878906c2.371094-2.355468 3.675782-5.496094 3.675782-8.84375s-1.304688-6.488281-3.675782-8.847656l-5.894531-5.855469 23.6875-.054687c.839844.007812 2.835938.800781 3.449219 1.371094l13.996094 13.28125-14.097656 13.378906c-.617188.578125-2.636719 1.386718-3.484376 1.394531zm119.800781 85.492188c-44.925781 0-83.019531-29.746094-95.6875-70.578125 4.597657-.160156 9.980469-2.363281 13.269531-5.484375l3.371094-3.203125c9.277344 34.992187 41.191406 60.863281 79.046875 60.863281 37.503907 0 70.113281-25.398437 79.308594-61.761718 1.015625-4.015626-1.417969-8.09375-5.433594-9.109376-4.007812-1.011718-8.097656 1.417969-9.109375 5.433594-7.507812 29.695313-34.140625 50.4375-64.765625 50.4375-33.859375 0-61.894531-25.34375-66.195312-58.0625.410156-.390625.78125-.8125 1.128906-1.253906h17.25c3.613281 23.148438 23.679687 40.917969 47.816406 40.917969 26.691407 0 48.402344-21.71875 48.402344-48.414063 0-26.699218-21.710937-48.417968-48.402344-48.417968-24.136719 0-44.199219 17.769531-47.816406 40.914062h-17.085937c-.386719-.507812-.804688-.992188-1.269532-1.4375 4.386719-32.628906 32.378906-57.875 66.171875-57.875 15.378907 0 29.84375 5.101562 41.824219 14.757812 11.644531 9.382813 19.902344 22.511719 23.25 36.964844.933594 4.035156 4.964844 6.550782 9 5.613282 4.035156-.933594 6.550781-4.960938 5.613281-8.996094-4.101562-17.707032-14.207031-33.78125-28.449219-45.261719-14.472656-11.660156-32.664062-18.082031-51.238281-18.082031-37.796875 0-69.667969 25.792968-79 60.699218l-3.320312-3.148437c-3.296875-3.125-8.699219-5.320313-13.339844-5.460937 12.691406-40.789063 50.769531-70.488282 95.660156-70.488282 55.242188 0 100.183594 44.957032 100.183594 100.21875 0 55.257813-44.941406 100.214844-100.183594 100.214844zm0-115.234375c-5.542969 0-10.382812 3.03125-12.984375 7.515625h-19.554687c3.410156-14.824219 16.703125-25.914062 32.539062-25.914062 18.417969 0 33.402344 14.988281 33.402344 33.414062s-14.984375 33.417969-33.402344 33.417969c-15.839843 0-29.128906-11.09375-32.539062-25.917969h19.554687c2.601563 4.484375 7.441406 7.515625 12.984375 7.515625 8.277344 0 15.015625-6.734375 15.015625-15.015625 0-8.277344-6.738281-15.015625-15.015625-15.015625zm215.183594 65.628906v21.089844h-125.089844c5.175781-6.496094 9.667969-13.5625 13.363281-21.089844zm-31.019531-82.828125c4.136718 0 7.5 3.363282 7.5 7.5v60.328125h-82.121094c1.546875-4.75 2.796875-9.632812 3.71875-14.628906h38.238281c4.140625 0 7.5-3.355469 7.5-7.5 0-4.140625-3.359375-7.5-7.5-7.5h-36.472656c.101563-1.980469.15625-3.976563.15625-5.980469 0-1.613281-.042969-3.21875-.109375-4.816406h45.019531c4.140625 0 7.5-3.359375 7.5-7.5s-3.359375-7.5-7.5-7.5h-46.621093c-.734376-4.214844-1.699219-8.355469-2.878907-12.402344zm49.980468-343.945312h90.472657v67.117187c-.046875.554688-.636719 1.738281-1.011719 2.078125l-44.226562 33.40625-44.1875-33.375c-.414063-.371094-1.003907-1.554687-1.050782-2.058594v-67.167968zm1.046876 116.917968c-.414063-.371093-1.003907-1.554687-1.046876-2.058593v-27.628907l36.722657 27.742188c2.355469 1.777344 5.378906 2.757812 8.511719 2.757812 3.132812 0 6.152343-.976562 8.511718-2.757812l36.726563-27.742188v27.578126c-.042969.554687-.632813 1.738281-1.011719 2.078124l-14.429688 10.898438c-9.027343-4.292969-19.132812-6.703125-29.796874-6.703125-10.664063 0-20.769532 2.410156-29.796876 6.703125zm44.1875 126.148438c-29.835938 0-54.109376-23.996094-54.109376-53.492188 0-29.496093 24.273438-53.492187 54.109376-53.492187 29.835937 0 54.113281 23.996094 54.113281 53.492187 0 29.496094-24.277344 53.492188-54.113281 53.492188zm0 0"/><path d="m462.464844 191.824219c-7.195313-15.375-22.886719-25.308594-39.972656-25.308594-24.289063 0-44.046876 19.59375-44.046876 43.679687 0 24.089844 19.757813 43.683594 44.046876 43.683594 14.890624 0 28.664062-7.378906 36.847656-19.738281 2.285156-3.453125 1.339844-8.105469-2.113282-10.394531-3.449218-2.285156-8.105468-1.339844-10.394531 2.113281-5.398437 8.152344-14.496093 13.019531-24.339843 13.019531-16.019532 0-29.046876-12.867187-29.046876-28.683594 0-15.8125 13.027344-28.679687 29.046876-28.679687 11.289062 0 21.648437 6.539063 26.386718 16.667969 1.757813 3.75 6.21875 5.367187 9.972656 3.613281 3.753907-1.757813 5.371094-6.222656 3.613282-9.972656zm0 0"/><path d="m414.238281 315.632812c-14.714843-6.097656-18.375-9.761718-24.472656-24.480468-1.722656-4.167969-5.753906-6.863282-10.261719-6.863282-4.511718 0-8.539062 2.695313-10.265625 6.863282-6.09375 14.71875-9.753906 18.378906-24.476562 24.480468-4.160157 1.726563-6.847657 5.757813-6.847657 10.261719 0 4.507813 2.6875 8.539063 6.851563 10.265625 14.71875 6.097656 18.378906 9.757813 24.472656 24.480469 1.726563 4.167969 5.753907 6.859375 10.265625 6.859375 4.507813 0 8.539063-2.695312 10.261719-6.859375 6.097656-14.722656 9.757813-18.382813 24.476563-24.484375 4.164062-1.722656 6.851562-5.753906 6.851562-10.261719 0-4.503906-2.6875-8.53125-6.855469-10.261719zm-34.734375 31.339844c-5.199218-10.28125-10.792968-15.875-21.070312-21.078125 10.277344-5.203125 15.871094-10.796875 21.070312-21.074219 5.199219 10.277344 10.796875 15.875 21.070313 21.074219-10.277344 5.203125-15.871094 10.796875-21.070313 21.078125zm0 0"/><path d="m102.550781 45.191406c11.789063 4.886719 14.507813 7.605469 19.386719 19.394532 1.625 3.925781 5.421875 6.460937 9.667969 6.460937 4.253906 0 8.050781-2.539063 9.667969-6.460937 4.882812-11.792969 7.601562-14.511719 19.386718-19.394532 3.925782-1.625 6.460938-5.421875 6.460938-9.667968 0-4.246094-2.535156-8.042969-6.460938-9.667969-11.785156-4.882813-14.503906-7.601563-19.382812-19.382813-1.621094-3.933594-5.417969-6.472656-9.671875-6.472656-4.246094 0-8.042969 2.535156-9.667969 6.464844-4.878906 11.785156-7.597656 14.503906-19.386719 19.390625-3.921875 1.625-6.457031 5.421875-6.457031 9.667969 0 4.246093 2.535156 8.042968 6.457031 9.667968zm29.054688-24.167968c3.710937 6.589843 7.910156 10.789062 14.5 14.5-6.585938 3.707031-10.789063 7.914062-14.5 14.5-3.707031-6.585938-7.90625-10.789063-14.496094-14.5 6.589844-3.710938 10.789063-7.914063 14.496094-14.5zm0 0"/></svg>