<svg id="Layer_1" height="512" viewBox="0 0 512 512" width="512" xmlns="http://www.w3.org/2000/svg" data-name="Layer 1"><path d="m425.62 29.85v282.69a18.842 18.842 0 0 1 -18.85 18.84h-246.15v-320.38h246.15a18.851 18.851 0 0 1 18.85 18.85z" fill="#ed6337"/><path d="m241 172.5a78.513 78.513 0 0 1 63.5-77.052 78.5 78.5 0 1 0 0 154.1 78.513 78.513 0 0 1 -63.5-77.048z" fill="#b7391c"/><path d="m245.58 444.46v56.54l-37.7-37.69-37.69 37.69v-56.54-56.54h75.39z" fill="#50a6ea"/><path d="m160.62 11v320.38h-36.54a37.7 37.7 0 0 0 -37.7 37.7v-320.39a37.7 37.7 0 0 1 37.7-37.69z" fill="#475673"/><path d="m344.45 171.77a14.6 14.6 0 1 1 -1.69-3.18 14.528 14.528 0 0 1 1.69 3.18z" fill="#fadf4a"/><path d="m116.38 48.69a37.7 37.7 0 0 1 37.7-37.69h-30a37.7 37.7 0 0 0 -37.7 37.69v320.39a37.713 37.713 0 0 1 30-36.91z" fill="#748391"/><g fill="#284268"><path d="m124.077 337h282.693c13.7 0 25.23-10.761 25.23-24.461v-282.693c0-13.7-11.53-24.846-25.23-24.846h-282.693c-24.092 0-44.077 19.6-44.077 43.692v358.078c0 24.091 19.985 43.23 44.077 43.23h40.923v51a6.107 6.107 0 0 0 10.387 4.243l33.473-33.45 33.463 33.45a6.01 6.01 0 0 0 4.249 1.757 7.079 7.079 0 0 0 2.509-.457 6.2 6.2 0 0 0 3.919-5.543v-51h172.615a6 6 0 0 0 0-12h-172.615v-44h172.615a6 6 0 0 0 0-12h-282.692a6 6 0 0 0 0 12h22.077v44h-40.923c-17.477 0-32.077-13.755-32.077-31.23v-37.693a32.39 32.39 0 0 1 32.077-32.077zm42.923-320h239.77c7.083 0 13.23 5.763 13.23 12.846v282.693c0 7.083-6.147 12.461-13.23 12.461h-239.77zm-75 31.692c0-17.475 14.6-31.692 32.077-31.692h30.923v308h-30.923a44.847 44.847 0 0 0 -32.077 14.03zm85 345.308h64v92.515l-27.662-27.45a6.245 6.245 0 0 0 -8.686 0l-27.652 27.45z"/><path d="m368.323 171h-.094a6.035 6.035 0 0 0 -6 5.948 68.049 68.049 0 0 1 -66.324 67.078 5.988 5.988 0 0 0 .142 11.974h.144c20.636 0 40.041-8.8 54.64-23.433a79.868 79.868 0 0 0 23.4-55.443 6 6 0 0 0 -5.908-6.124z"/><path d="m233.717 229.6a6 6 0 0 0 4.248-10.238 68.321 68.321 0 0 1 0-96.347 67.811 67.811 0 0 1 96.071 0c1.078 1.08 2.132 2.209 3.131 3.353a6 6 0 0 0 9.041-7.891c-1.174-1.345-2.411-2.67-3.677-3.938a79.812 79.812 0 0 0 -113.062 0 80.343 80.343 0 0 0 0 113.3 5.982 5.982 0 0 0 4.248 1.761z"/><path d="m336.337 83a6 6 0 1 0 2.355 11.766c8.828-1.767 15.467-.489 19.743 3.8 9.851 9.876 3.627 32.483-16.584 61.073a20.585 20.585 0 0 0 -26.069 31.443q-2.435 2.553-4.926 5.054c-31.671 31.75-64.934 52.265-84.739 52.265-5.378 0-9.484-1.5-12.552-4.571-4.77-4.781-5.808-12.477-3.085-22.873a6 6 0 0 0 -11.609-3.04c-2.666 10.181-3.756 24.411 6.2 34.388 5.36 5.372 12.441 8.1 21.048 8.1 27.709 0 66.33-28.819 93.236-55.79 2.421-2.428 4.8-4.917 7.142-7.418a20.64 20.64 0 0 0 23.562-27.569c-.069-.178-.152-.347-.224-.522 26.077-35.918 32.169-63.9 17.1-79.011-9.083-9.112-21.653-8.887-30.598-7.095zm-5.517 102.653a8.652 8.652 0 1 1 8.6-8.636 8.628 8.628 0 0 1 -8.6 8.636z"/><path d="m232.3 144.891a84.732 84.732 0 0 0 -2.728 8.182 6 6 0 1 0 11.563 3.209 72.254 72.254 0 0 1 2.341-7.018 6 6 0 0 0 -11.176-4.373z"/><path d="m258.656 64.538a12.112 12.112 0 1 0 -12.11-12.111 12.126 12.126 0 0 0 12.11 12.111z"/><circle cx="242.36" cy="72.797" r="8.037"/></g></svg>