<svg height="512" viewBox="0 0 512 512" width="512" xmlns="http://www.w3.org/2000/svg"><g id="filled_outline" data-name="filled outline"><path d="m425.088 408h-336.781v-344a40 40 0 0 1 40-40h276.781a20 20 0 0 1 20 20z" fill="#0bafea"/><g fill="#fbb540"><path d="m257.9 104.6 8.258 25.416h26.725a2 2 0 0 1 1.175 3.619l-21.62 15.708 8.258 25.416a2 2 0 0 1 -3.078 2.236l-21.618-15.709-21.62 15.708a2 2 0 0 1 -3.078-2.236l8.258-25.416-21.62-15.708a2 2 0 0 1 1.175-3.619h26.725l8.26-25.415a2 2 0 0 1 3.8 0z"/><path d="m352.79 127.214 8.259 25.417h26.724a2 2 0 0 1 1.175 3.618l-21.62 15.708 8.258 25.416a2 2 0 0 1 -3.077 2.236l-21.621-15.709-21.62 15.708a2 2 0 0 1 -3.078-2.236l8.259-25.416-21.621-15.708a2 2 0 0 1 1.172-3.617h26.724l8.258-25.417a2 2 0 0 1 3.808 0z"/><path d="m203.014 223.214 8.258 25.417h26.728a2 2 0 0 1 1.176 3.618l-21.621 15.708 8.259 25.416a2 2 0 0 1 -3.078 2.236l-21.624-15.709-21.621 15.708a2 2 0 0 1 -3.077-2.236l8.258-25.416-21.62-15.708a2 2 0 0 1 1.175-3.618h26.724l8.259-25.417a2 2 0 0 1 3.804.001z"/><path d="m312.79 223.214 8.259 25.417h26.724a2 2 0 0 1 1.175 3.618l-21.62 15.708 8.258 25.416a2 2 0 0 1 -3.077 2.236l-21.621-15.709-21.62 15.708a2 2 0 0 1 -3.078-2.236l8.259-25.416-21.621-15.708a2 2 0 0 1 1.172-3.617h26.724l8.258-25.417a2 2 0 0 1 3.808 0z"/></g><path d="m136 24h-8a40 40 0 0 0 -40 40v343.692l48 .308z" fill="#0a9acd"/><path d="m163.014 127.214 8.258 25.417h26.728a2 2 0 0 1 1.176 3.618l-21.621 15.708 8.259 25.416a2 2 0 0 1 -3.078 2.236l-21.624-15.709-21.621 15.708a2 2 0 0 1 -3.077-2.236l8.258-25.416-21.62-15.708a2 2 0 0 1 1.175-3.618h26.724l8.259-25.417a2 2 0 0 1 3.804.001z" fill="#fbb540"/><path d="m425.088 368-1.088 80h-296a40 40 0 0 1 -40-40.308 40 40 0 0 1 40-39.692z" fill="#cbcbcb"/><path d="m136 408v80l24-24 24 24v-80z" fill="#e82f3e"/><circle cx="400" cy="400" fill="#fbb540" r="88"/><path d="m380.393 363.869a14.108 14.108 0 0 0 -9.225 16.8l4.832 19.331h8a8 8 0 0 1 8 8v32h16l16-8h16v-40h-32l-10.528-21.057a14.108 14.108 0 0 0 -17.079-7.074z" fill="#fdc9a6"/><path d="m400 400v40h-8v-32a8 8 0 0 0 -8-8h-8l-1.65-6.59a11.976 11.976 0 0 1 5.65-1.41h12a8 8 0 0 1 8 8z" fill="#fdc9a6"/><path d="m136 408h48v16h-48z" fill="#d32b39"/><path d="m400 408v32h-8v-24a8 8 0 0 0 -8-8h-8l-1.65-6.59a11.976 11.976 0 0 1 5.65-1.41h12a8 8 0 0 1 8 8z" fill="#f6bb92"/><path d="m360 412v16a12 12 0 0 0 12 12h20v-32a8 8 0 0 0 -8-8h-12a12 12 0 0 0 -12 12z" fill="#fdc9a6"/><path d="m268.415 400h-23.788a8 8 0 1 0 0 16h23.788a8 8 0 0 0 0-16z"/><path d="m278.8 185.382a10.01 10.01 0 0 0 9.511-13.1l-6.466-19.882 16.917-12.291a10 10 0 0 0 -5.877-18.09h-20.912l-6.462-19.888a10 10 0 0 0 -19.021 0l-6.462 19.888h-20.913a10 10 0 0 0 -5.877 18.089l16.917 12.292-6.462 19.889a10 10 0 0 0 15.389 11.18l16.918-12.294 16.919 12.292a9.982 9.982 0 0 0 5.881 1.915zm-13.964-33.569 2.552 7.855-6.682-4.854a8 8 0 0 0 -9.4 0l-6.682 4.854 2.552-7.855a8 8 0 0 0 -2.906-8.943l-6.68-4.854h8.258a8 8 0 0 0 7.608-5.529l2.544-7.853 2.552 7.853a8 8 0 0 0 7.608 5.529h8.258l-6.68 4.854a8 8 0 0 0 -2.906 8.943z"/><path d="m308.126 162.722 16.918 12.291-6.462 19.887a10 10 0 0 0 15.388 11.18l16.918-12.291 16.919 12.292a10 10 0 0 0 15.393-11.181l-6.462-19.887 16.919-12.293a10 10 0 0 0 -5.879-18.089h-20.917l-6.461-19.889a10 10 0 0 0 -19.021 0l-6.462 19.889h-20.917a10 10 0 0 0 -5.878 18.091zm32.6-2.091a8 8 0 0 0 7.608-5.528l2.552-7.854 2.552 7.854a8 8 0 0 0 7.609 5.528h8.258l-6.681 4.854a8 8 0 0 0 -2.906 8.944l2.551 7.854-6.681-4.854a8 8 0 0 0 -9.4 0l-6.681 4.853 2.552-7.854a8 8 0 0 0 -2.906-8.945l-6.681-4.853z"/><path d="m178.03 206.082a10 10 0 0 0 15.388-11.182l-6.462-19.887 16.92-12.293a10 10 0 0 0 -5.876-18.089h-20.916l-6.462-19.889a10 10 0 0 0 -19.021 0l-6.462 19.889h-20.912a10 10 0 0 0 -5.877 18.09l16.917 12.292-6.462 19.887a10 10 0 0 0 15.388 11.181l16.919-12.292zm-28.3-23.8 2.551-7.854a8 8 0 0 0 -2.906-8.944l-6.681-4.854h8.258a8 8 0 0 0 7.609-5.528l2.552-7.854 2.552 7.854a8 8 0 0 0 7.608 5.528h8.258l-6.681 4.853a8 8 0 0 0 -2.906 8.945l2.552 7.854-6.681-4.853a8 8 0 0 0 -9.4 0z"/><path d="m238 240.631h-20.916l-6.462-19.889a10 10 0 0 0 -19.021 0l-6.462 19.889h-20.912a10 10 0 0 0 -5.877 18.09l16.917 12.292-6.462 19.887a10 10 0 0 0 15.388 11.181l16.919-12.292 16.918 12.292a10 10 0 0 0 15.388-11.181l-6.462-19.887 16.92-12.293a10 10 0 0 0 -5.876-18.089zm-25.147 20.853a8 8 0 0 0 -2.906 8.945l2.552 7.854-6.681-4.853a8 8 0 0 0 -9.4 0l-6.681 4.854 2.551-7.854a8 8 0 0 0 -2.906-8.944l-6.681-4.854h8.258a8 8 0 0 0 7.609-5.528l2.552-7.854 2.552 7.854a8 8 0 0 0 7.608 5.528h8.258z"/><path d="m339.562 302.081a9.975 9.975 0 0 0 3.638-11.181l-6.462-19.887 16.919-12.293a10 10 0 0 0 -5.879-18.089h-20.917l-6.461-19.889a10 10 0 0 0 -19.021 0l-6.462 19.889h-20.917a10 10 0 0 0 -5.878 18.091l16.918 12.291-6.458 19.887a10 10 0 0 0 15.388 11.18l16.918-12.291 16.919 12.292a9.975 9.975 0 0 0 11.755 0zm-16.936-40.6a8 8 0 0 0 -2.906 8.944l2.551 7.854-6.681-4.854a8 8 0 0 0 -9.4 0l-6.681 4.853 2.552-7.854a8 8 0 0 0 -2.906-8.945l-6.681-4.853h8.258a8 8 0 0 0 7.608-5.528l2.552-7.854 2.552 7.854a8 8 0 0 0 7.609 5.528h8.258z"/><path d="m433.088 309.878v-265.878a28.031 28.031 0 0 0 -28-28h-276.781a48.055 48.055 0 0 0 -48 48s-.291 341.74-.307 343.631a48 48 0 0 0 48 48.369v32a8 8 0 0 0 13.657 5.657l18.343-18.344 18.343 18.344a8 8 0 0 0 13.657-5.657v-32h130.073a95.984 95.984 0 1 0 111.015-146.122zm-257.088 158.809-10.343-10.344a8 8 0 0 0 -11.314 0l-10.343 10.344v-52.687h32zm16-28.687v-24h19.072a8 8 0 0 0 0-16h-89.072a8 8 0 0 0 0 16h6v24a32 32 0 1 1 0-64h179.037a96.06 96.06 0 0 0 5.7 64zm-48-80v-128a8 8 0 0 0 -16 0v128a47.782 47.782 0 0 0 -31.693 12.033v-308.033a32.033 32.033 0 0 1 31.693-31.992v87.992a8 8 0 0 0 16 0v-88h261.088a12.013 12.013 0 0 1 12 12v261.525a96.046 96.046 0 0 0 -104.347 54.475zm256 120a80 80 0 1 1 80-80 80.091 80.091 0 0 1 -80 80z"/><path d="m440 384h-27.056l-8.317-16.635a22.216 22.216 0 0 0 -26.763-11.086 22.211 22.211 0 0 0 -14.456 26.335l2.579 10.314a20.032 20.032 0 0 0 -13.987 19.072v16a20.023 20.023 0 0 0 20 20h36a7.994 7.994 0 0 0 3.578-.845l14.311-7.155h14.111a8 8 0 0 0 8-8v-40a8 8 0 0 0 -8-8zm-56 48h-12a4 4 0 0 1 -4-4v-16a4 4 0 0 1 4-4h12zm48-8h-8a7.994 7.994 0 0 0 -3.578.845l-14.311 7.155h-6.111v-24a16.019 16.019 0 0 0 -16-16h-1.754l-3.316-13.267a6.106 6.106 0 0 1 11.386-4.212l10.529 21.057a8 8 0 0 0 7.155 4.422h24z"/></g></svg>