<?xml version="1.0" encoding="iso-8859-1"?>
<!-- Generator: Adobe Illustrator 19.0.0, SVG Export Plug-In . SVG Version: 6.00 Build 0)  -->
<svg version="1.1" id="Capa_1" xmlns="http://www.w3.org/2000/svg" xmlns:xlink="http://www.w3.org/1999/xlink" x="0px" y="0px"
	 viewBox="0 0 511.916 511.916" style="enable-background:new 0 0 511.916 511.916;" xml:space="preserve">
<path style="fill:#FFC107;" d="M495.253,197.676c-1.8-5.322-6.415-9.197-11.968-10.048l-147.584-22.4L269.589,24.204
	c-3.501-7.493-12.414-10.73-19.908-7.228c-3.183,1.487-5.741,4.046-7.228,7.228l-66.144,140.8L28.821,187.628
	C20.627,188.88,15,196.537,16.251,204.73c0.473,3.096,1.903,5.967,4.089,8.21l107.168,109.824l-25.344,155.328
	c-0.916,5.667,1.466,11.361,6.144,14.688c2.538,1.76,5.551,2.708,8.64,2.72c2.544,0.012,5.048-0.639,7.264-1.888l131.808-72.8
	l131.808,72.864c7.231,4.015,16.348,1.408,20.363-5.823c1.638-2.95,2.232-6.367,1.685-9.697l-25.344-155.392l107.2-109.888
	C495.635,208.854,496.99,203.003,495.253,197.676z"/>
<path d="M404.341,511.564c-2.697-0.001-5.35-0.683-7.712-1.984l-140.608-77.728L115.413,509.58
	c-7.736,4.271-17.469,1.462-21.74-6.275c-1.737-3.147-2.364-6.787-1.78-10.333l27.04-165.696L4.565,210.092
	c-6.18-6.316-6.071-16.446,0.245-22.626c2.395-2.344,5.466-3.877,8.779-4.382l157.408-24.064L241.525,8.78
	c4.548-8.006,14.725-10.809,22.731-6.261c2.613,1.484,4.776,3.648,6.261,6.261l70.4,150.24l157.408,24.064
	c8.736,1.332,14.738,9.493,13.406,18.229c-0.505,3.313-2.038,6.384-4.382,8.779L392.981,327.276l27.04,165.696
	c1.432,8.72-4.477,16.949-13.197,18.381c-0.863,0.142-1.737,0.212-2.611,0.211H404.341z M256.021,397.58
	c2.708-0.005,5.372,0.678,7.744,1.984l119.488,66.048l-23.04-141.152c-0.807-5.007,0.808-10.1,4.352-13.728l98.24-100.704
	l-135.04-20.64c-5.275-0.808-9.799-4.193-12.064-9.024l-59.68-127.136l-59.68,127.136c-2.265,4.831-6.789,8.216-12.064,9.024
	l-135.04,20.64l98.24,100.704c3.544,3.628,5.159,8.721,4.352,13.728l-23.04,141.152l119.488-66.048
	C250.649,398.258,253.313,397.575,256.021,397.58z"/>
<g>
</g>
<g>
</g>
<g>
</g>
<g>
</g>
<g>
</g>
<g>
</g>
<g>
</g>
<g>
</g>
<g>
</g>
<g>
</g>
<g>
</g>
<g>
</g>
<g>
</g>
<g>
</g>
<g>
</g>
</svg>
