<?xml version="1.0" encoding="iso-8859-1"?>
<!-- Generator: Adobe Illustrator 19.0.0, SVG Export Plug-In . SVG Version: 6.00 Build 0)  -->
<svg version="1.1" id="Capa_1" xmlns="http://www.w3.org/2000/svg" xmlns:xlink="http://www.w3.org/1999/xlink" x="0px" y="0px"
	 viewBox="0 0 512 512" style="enable-background:new 0 0 512 512;" xml:space="preserve">
<path style="fill:#303C42;" d="M437.333,448h-10.667V170.667C426.667,76.563,350.103,0,256,0c-59.379,0-111.719,30.524-142.3,76.663
	c-0.356,0.407-0.54,0.905-0.828,1.359c-17.353,26.711-27.539,58.487-27.539,92.644V448H74.667C68.77,448,64,452.77,64,458.667
	v42.667C64,507.23,68.77,512,74.667,512h362.667c5.896,0,10.667-4.77,10.667-10.667v-42.667C448,452.77,443.23,448,437.333,448z"/>
<g>
	<path style="fill:#67686B;" d="M106.667,170.667c0-22.953,5.359-44.625,14.652-64.073l7.827,15.541
		c1.813,3.595,5.5,5.865,9.521,5.865H173l8.644,34.583c1.21,4.853,5.564,8.083,10.355,8.083c0.853,0,1.73-0.105,2.583-0.322
		c5.728-1.427,9.188-7.219,7.772-12.928l-10.667-42.667c-1.188-4.749-5.459-8.083-10.355-8.083h-36.105l-11.089-22.02
		C161.214,46.411,205.698,21.333,256,21.333c82.334,0,149.333,66.989,149.333,149.333v132.073l-36.77,18.385
		c-2.938,1.47-5.043,4.22-5.687,7.45l-9.792,48.998l-28.333,18.886c-4.896,3.27-6.229,9.886-2.959,14.79
		c2.063,3.085,5.438,4.751,8.875,4.751c2.041,0,4.104-0.582,5.916-1.792l32-21.333c2.355-1.572,3.981-4.011,4.542-6.782
		l9.647-48.218l22.562-11.281V448H106.667V170.667z"/>
	<path style="fill:#67686B;" d="M200.876,114.75c-1.02-4.749-4.68-8.083-8.876-8.083h-10.667c4.896,0,9.167,3.335,10.355,8.083
		l10.667,42.667c1.206,4.861-1.242,9.612-5.497,11.846c1.314,0.826,2.743,1.404,4.285,1.404c0.73,0,1.483-0.105,2.214-0.323
		c4.91-1.427,7.876-7.219,6.661-12.927L200.876,114.75z"/>
	<rect x="85.333" y="469.333" style="fill:#67686B;" width="341.333" height="21.333"/>
</g>
<rect x="85.333" y="469.333" style="opacity:0.2;fill:#FFFFFF;enable-background:new    ;" width="21.333" height="21.333"/>
<g>
	<path style="fill:#303C42;" d="M181.333,192H160c-5.897,0-10.667,4.77-10.667,10.667V288c0,5.897,4.77,10.667,10.667,10.667
		c5.896,0,10.667-4.77,10.667-10.667v-32h10.667c5.875,0,10.667,4.781,10.667,10.667V288c0,5.897,4.77,10.667,10.667,10.667
		c5.896,0,10.667-4.77,10.667-10.667v-21.333c0-8.188-3.083-15.667-8.167-21.333c5.084-5.666,8.167-13.146,8.167-21.333
		C213.333,206.355,198.978,192,181.333,192z M181.333,234.667h-10.667v-21.333h10.667c5.875,0,10.667,4.781,10.667,10.667
		S187.208,234.667,181.333,234.667z"/>
	<path style="fill:#303C42;" d="M362.667,224c0-17.645-14.355-32-32-32h-21.333c-5.897,0-10.667,4.77-10.667,10.667V288
		c0,5.897,4.77,10.667,10.667,10.667c5.896,0,10.667-4.77,10.667-10.667v-32h10.667C348.311,256,362.667,241.645,362.667,224z
		 M320,213.333h10.667c5.875,0,10.667,4.781,10.667,10.667s-4.792,10.667-10.667,10.667H320V213.333z"/>
	<path style="fill:#303C42;" d="M256,192c-5.897,0-10.667,4.77-10.667,10.667V288c0,5.897,4.77,10.667,10.667,10.667
		c5.896,0,10.667-4.77,10.667-10.667v-85.333C266.667,196.77,261.896,192,256,192z"/>
</g>
<linearGradient id="SVGID_1_" gradientUnits="userSpaceOnUse" x1="-29.942" y1="629.4652" x2="-26.8322" y2="626.3553" gradientTransform="matrix(21.3333 0 0 -21.3333 996.3334 13791.667)">
	<stop  offset="0" style="stop-color:#000000;stop-opacity:0.1"/>
	<stop  offset="1" style="stop-color:#000000;stop-opacity:0"/>
</linearGradient>
<path style="fill:url(#SVGID_1_);" d="M405.333,326.594l-22.563,11.281l-9.647,48.217c-0.561,2.771-2.186,5.21-4.542,6.781
	l-32,21.333c-1.811,1.21-3.874,1.793-5.915,1.793c-3.438,0-6.813-1.667-8.875-4.751L358.543,448h46.79V326.594z"/>
<g>
	<path style="opacity:0.2;fill:#FFFFFF;enable-background:new    ;" d="M147.905,106.667c1.41-2.419,2.556-5.005,4.078-7.348
		c0.289-0.454,0.473-0.952,0.828-1.359c26.993-40.728,70.964-69.208,121.741-75.348c-6.092-0.76-12.258-1.279-18.552-1.279
		c-50.302,0-94.786,25.077-121.861,63.313l11.09,22.021H147.905z"/>
	<path style="opacity:0.2;fill:#FFFFFF;enable-background:new    ;" d="M124.444,191.964c0-22.815,4.887-44.398,13.076-64.289
		c-3.534-0.41-6.747-2.314-8.374-5.539l-7.828-15.542c-9.292,19.448-14.651,41.12-14.651,64.073V448h17.777V191.964z"/>
</g>
<linearGradient id="SVGID_2_" gradientUnits="userSpaceOnUse" x1="-44.0916" y1="637.2675" x2="-23.4739" y2="627.6541" gradientTransform="matrix(21.3333 0 0 -21.3333 996.3334 13791.667)">
	<stop  offset="0" style="stop-color:#FFFFFF;stop-opacity:0.2"/>
	<stop  offset="1" style="stop-color:#FFFFFF;stop-opacity:0"/>
</linearGradient>
<path style="fill:url(#SVGID_2_);" d="M437.333,448h-10.667V170.667C426.667,76.563,350.103,0,256,0
	c-59.379,0-111.719,30.524-142.3,76.663c-0.356,0.407-0.54,0.905-0.828,1.359c-17.353,26.711-27.539,58.487-27.539,92.644V448
	H74.667C68.77,448,64,452.77,64,458.667v42.667C64,507.23,68.77,512,74.667,512h362.667c5.896,0,10.667-4.77,10.667-10.667v-42.667
	C448,452.77,443.23,448,437.333,448z"/>
<g>
</g>
<g>
</g>
<g>
</g>
<g>
</g>
<g>
</g>
<g>
</g>
<g>
</g>
<g>
</g>
<g>
</g>
<g>
</g>
<g>
</g>
<g>
</g>
<g>
</g>
<g>
</g>
<g>
</g>
</svg>
