<?xml version="1.0" ?>
<svg style="enable-background:new 0 0 48 48;" version="1.1" viewBox="0 0 48 48" xml:space="preserve"
     xmlns="http://www.w3.org/2000/svg" xmlns:xlink="http://www.w3.org/1999/xlink"><g id="Padding__x26__Artboard"/>
    <g id="Icons"><g><g><path d="M36.28516,22.63101c-0.60547-5.60938-5.10205-10.18945-10.69189-10.8916     c-3.83887-0.47949-7.60498,0.79883-10.32373,3.5127c-2.71973,2.71387-4.00732,6.47461-3.5332,10.31641     c0.71094,5.76562,5.44336,10.28711,11.25293,10.75098c0.33691,0.02734,0.67236,0.04004,1.00732,0.04004     c2.16357,0,4.27051-0.55762,6.14648-1.63379c0,0,0.07031-0.01465,0.0708-0.01465l4.17969,0.6748     c0.10742,0.01562,0.21729-0.01758,0.29736-0.09277c0.0791-0.0752,0.11816-0.18359,0.10596-0.29199l-0.45801-4.23047     C35.92579,28.35366,36.59864,25.53921,36.28516,22.63101z M23.30421,15.45034c-3.76416,0-7.32275,3.22461-7.32275,6.63477     c0,0.19336-0.15674,0.34961-0.3501,0.34961s-0.3501-0.15625-0.3501-0.34961c0-3.76953,3.89893-7.33398,8.02295-7.33398     c0.19336,0,0.3501,0.15625,0.3501,0.34961S23.49757,15.45034,23.30421,15.45034z M15.53272,25.7355     c-0.26904-0.76758-0.25195-1.52344-0.25146-1.55566c0.00586-0.19238,0.18457-0.3457,0.35889-0.33984     c0.19287,0.00488,0.3457,0.16504,0.34131,0.3584c-0.00049,0.00684-0.01318,0.66406,0.21143,1.30469     c0.06396,0.18262-0.03174,0.38281-0.21436,0.44629c-0.03809,0.01367-0.07715,0.01953-0.11572,0.01953     C15.71827,25.9689,15.58302,25.87906,15.53272,25.7355z" style="fill: #a1a1a1;"/></g></g></g></svg>