<?xml version="1.0" ?><svg style="enable-background:new 0 0 48 48;" version="1.1" viewBox="0 0 48 48" xml:space="preserve" xmlns="http://www.w3.org/2000/svg" xmlns:xlink="http://www.w3.org/1999/xlink"><g id="Padding__x26__Artboard"/><g id="Icons"><g><g><path d="M24.58228,12.94348l-0.57959,0.58594l-0.58643-0.58691     c-3.37012-3.36914-8.85156-3.36816-12.21973-0.00098c-1.62744,1.61914-2.52393,3.79102-2.52393,6.11523     s0.89648,4.49609,2.52344,6.11328l12.13477,12.13477c0.1792,0.17969,0.41846,0.2793,0.67285,0.2793h0.00049     c0.25439,0,0.49316-0.09863,0.67334-0.2793l11.29834-11.30566l0.83643-0.82812c1.62158-1.62109,2.51514-3.79297,2.51514-6.11426     s-0.89355-4.49316-2.51514-6.11426C33.44507,9.57532,27.96021,9.57434,24.58228,12.94348z M11.57739,21.51575     c-0.16504,0-0.31152-0.11621-0.34326-0.28418c-0.08545-0.4502-0.12842-0.91211-0.12842-1.37109     c0-0.19336,0.15674-0.34961,0.3501-0.34961s0.3501,0.15625,0.3501,0.34961c0,0.41602,0.03906,0.83301,0.11572,1.24023     c0.03613,0.19043-0.08887,0.37305-0.27881,0.40918C11.62085,21.51379,11.59888,21.51575,11.57739,21.51575z M11.86206,17.85071     c-0.03906,0-0.07861-0.00586-0.11768-0.01953c-0.18213-0.06543-0.27686-0.26562-0.21191-0.44727     c0.36328-1.01953,0.93652-1.92285,1.70361-2.68555c1.02881-1.02832,2.33008-1.71777,3.7627-1.99316     c0.18848-0.03223,0.37354,0.08789,0.40967,0.27734c0.03662,0.19043-0.08789,0.37402-0.27783,0.41016     c-1.29443,0.24902-2.47021,0.87207-3.3999,1.80078c-0.69336,0.69043-1.21094,1.50586-1.53906,2.4248     C12.14038,17.76184,12.00562,17.85071,11.86206,17.85071z" style="fill: #a1a1a1;"/></g></g></g></svg>